<?xml version="1.0" encoding="utf-8"?>
<!-- Generator: Adobe Illustrator 27.5.0, SVG Export Plug-In . SVG Version: 6.00 Build 0)  -->
<svg version="1.1" id="Capa_1" xmlns="http://www.w3.org/2000/svg" xmlns:xlink="http://www.w3.org/1999/xlink" x="0px" y="0px"
	 viewBox="0 0 2122 2122" style="enable-background:new 0 0 2122 2122;" xml:space="preserve">
<g>
	
		<ellipse transform="matrix(0.7071 -0.7071 0.7071 0.7071 -439.34 1060.6602)" style="fill:#C5CBD3;" cx="1060.66" cy="1060.66" rx="861.05" ry="861.05"/>
	<g>
		<path style="fill:#ACB2B8;" d="M1858.182,1127.528c-3.442-2.868-9.62-3.352-11.731-7.366c-2.498-4.75,0.294-11.775,2.167-16.352
			c3.298-8.055,8.309-11.918,14.714-17.12c10.634-8.637,5.624-18.276,4.9-30.45c-0.584-9.826-2.812-20.086-13.141-23.189
			c-8.138-2.445-13.811-2.548-21.739,0.338c-5.098,1.857-12.993,4.491-17.504-0.567c-2.405-2.698-1.731-8.58-4.081-12.051
			c-3.782-5.584-12.259-9.075-18.763-10.341c-5.449-1.06-12.958-1.312-16.235,3.846c-1.661,2.613-1.153,5.437-2.857,8.111
			c-3.451,5.418-12.282,13.998-18.613,14.707c-4.891,0.548-7.492-2.683-11.398-5.067c-2.605-1.59-8.541-5.261-11.226-5.159
			c-3.834,0.146-11.333,8.083-14.703,10.178c-2.461,1.53-9.498,4.65-11.28,7.308c-3.783,5.645,1.516,14.584-2.128,20.489
			c-4.243,6.874-9.207,5.836-15.308,8.591c-6.295,2.843-11.77,10.387-18.854,11.083c-5.988,0.589-15.418-5.946-19.967,1.713
			c-3.369,5.673,2.722,11.419-4.239,16.149c-4.492,3.052-18.068,9.726-22.916,5.515c-1.996-1.733-1.99-5.158-4.223-7.108
			c-3.378-2.95-10.191-3.117-13.008-6.179c-1.244-1.352-2.921-12.186-0.919-14.091c1.224-1.165,6.551-0.634,7.966-0.458
			c4.461,0.555,5.537,3.035,9.265,4.16c7.616,2.297,6.391-1.592,6.47-6.268c0.088-5.195,9.125-14.906,5.657-20.058
			c7.897-3.315,18.973,4.951,22.219,11.814c4.659,0.32,10.145-3.64,12.499-7.446c0.393-0.636,1.468-3.836,1.845-4.228
			c1.454-1.515,3.805-1.534,5.37-2.919c1.674-1.481,3.814-4.107,5.395-5.776c1.144-1.208,2.412-2.431,3.319-3.954
			c2.841-4.768,2.404-6.062-0.033-10.496c-1.094-1.99-1.961-1.84-2.31-3.954c-1.02-6.174,5.414-11.67,9.588-14.333
			c2.393-1.526,3.555-0.611,4.657-4.25c0.632-2.086,0.335-3.997,0.861-6.107c1.346-5.4,3.014-9.086-0.967-14.098
			c-1.974-2.486-4.668-5.263-7.168-7.147c-4.217-3.178-11.873-5.481-17.152-3.185c-4.83,2.101-8.299,7.246-12.656,10.028
			c-3.196,2.041-8.009,2.317-10.434,5.517c-2.633,3.474-0.511,7.321-1.771,11.401c-2.341,7.579-10.552,11.37-17.833,9.252
			c-3.95-1.149-3.03-2.956-4.367-5.708c-1.848-3.803-3.502-5.6-8.083-6.264c-3.947-0.572-13.98-1.435-17.838,0.202
			c-9.22,3.909-2.435,16.059-6.865,22.988c-9.215,14.412-25.985,13.672-38.88,5.762c-4.901-3.006-12.199-5.997-9.373-12.352
			c2.81-6.319,10.91-9.415,12.873-16.203c1.698-5.871,0.9-12.761-4.169-16.247c-6.214-4.273-15.657-7.691-16.582-16.504
			c-0.839-8.002,8.504-13.105,15.293-14.549c7.598-1.616,8.398,0.953,14.35,3.398c4.073,1.673,7.775,1.668,11.389,4.924
			c3.437,3.096,3.768,6.668,8.984,7.966c6.535,1.627,13.691,0.564,18.246-4.173c6.548-6.809,3.408-8.716-0.132-15.625
			c-1.399-2.73-3.578-5.917,0.517-8.842c1.634-1.167,8.039-0.613,10.221-0.458c7.336,0.522,12.874,6.043,17.231,11.639
			c1.756,2.255,2.724,4.289,3.14,7.131c0.25,1.708-0.975,4.652-0.294,6.213c2.315,5.298,21.664-0.988,22.615-6.327
			c0.557-3.128-2.715-5.918-3.95-8.475c-1.727-3.573-3.336-8.859-3.745-12.81c-0.562-5.427,0.053-8.167,5.509-10.222
			c7.301-2.748,35.795-0.742,35.622,10.636c3.79,1.187,6.529,0.515,10.394,2.321c4.022,1.879,6.431,3.622,9.822,6.272
			c3.289,2.57,6.389,3.842,9.11,7.195c1.48,1.824,2.343,4.382,4.743,4.772c3.711-3.902,8.785-8.228,14.501-6.566
			c3.963,1.154,10.191,5.408,12.451,8.934c1.435,2.239-0.408,3.202,2.208,4.316c1.946,0.829,6.083-0.828,7.974-1.64
			c2.86-1.228,4.919-3.269,7.631-4.551c2.146-1.014,4.8-1.208,7.053-2.23c3.595-1.63,8.736-1.152,11.068-3.972
			c2.703-3.268,1.28-8.539,1.405-12.385c0.171-5.248,1.927-13.513,5.42-17.516c2.14-2.452,5.78-4.869,8.36-6.869
			c-6.144-2.708-13.445,5.088-19.447,1.337c-1.591-0.994-2.783-4.685-4.419-5.968c-2.067-1.621-3.728-1.522-5.917-2.509
			c-2.656-1.196-6.167-2.219-6.264-5.516c-0.088-3.002,5.382-9.015,7.919-10.075c3.138-1.312,6.952,0.103,10.28-0.769
			c3.501-0.917,5.452-1.633,9.259-1.596c3.172,0.031,7.044,0.511,10.108-0.183c7.664-1.735,3.676-7.698,6.278-13.267
			c2.642-5.655,6.615-4.94,3.16-11.243c-3.778-6.893-1.084-7.757,4.115-12.246c3.555-3.07,8.426-10.097,7.82-14.453
			c-0.812-5.835-3.999-13.708-8.852-17.357c-4.208-3.164-10.191-7.188-9.409-13.553c0.766-6.231,6.187-11.877,4.368-18.624
			c-0.907-3.363-5.753-7.672-8.633-9.617c-7.549-5.099-13.346-6.277-17.69-14.967c-3.159-6.319-3.412-11.077-0.527-17.484
			c4.001-8.888-1.949-9.287-9.355-13.431c-5.369-3.003-11.02-5.597-11.256-12.291c-0.12-3.391,0.463-6.96,0.08-10.328
			c-0.558-4.915-0.357-2.606-4.162-4.067c-3.097-1.188-10.948-1.768-10.198-6.98c0.282-1.956,3.555-3.214,4.583-4.808
			c2.14-3.32,1.312-2.791-0.284-5.96c-1.845-3.666-7.818-7.037-12.351-7.406c0.386-4.114,7.236-4.704,7.813-7.308
			c-4.026-1.338-10.194,1.243-13.835-0.882c-3.903-2.279-3.438-6.914-8.647-7.959c-9-1.807-16.187,6.928-24.676,8.468
			c-11.222,2.036-10.286-11.398-10.294-18.609c-0.004-3.024,1.192-9.275-0.418-11.927c-2.296-3.787-7.605-1.921-9.558-6.549
			c-1.014-2.4-1.081-10.016-0.41-12.492c0.42-1.551,2.112-3.837,3.165-5.058c1.518-1.762,2.279-1.965,3.882-3.262
			c1.146-0.927,8.894-7.042,9.299-8.499c0.889-3.192-5.996-7.799-8.523-9.357c-5.783-3.567-13.024-7.309-13.944-14.82
			c-1.105-9.013,5.402-14.905-2.526-22.368c-4.431,1.954-8.578,1.712-13.886,1.746c-6.747,0.042-8.951-1.071-14.402-5.148
			c-9.72-7.268-13.15-15.37-6.689-25.773c2.281-3.674,4.566-7.392,0.67-10.276c-3.666-2.714-7.068-2.173-9.466-7.08
			c-3.235-6.62-3.47-18.402-12.268-19.712c-8.227-1.226-17.974,5.978-25.79,8.374c-2.957,0.907-7.802,1.032-10.337,2.938
			c-3.12,2.345-1.342,6.142-4.428,8.839c-5.986,5.234-17.129,11.892-25.308,10.877c-11.518-1.43-15.2-8.52-18.534-18.587
			c-3.401-10.271,8.632-10.888,15.441-13.849c4.519-1.965,6.516-3.964,9.262-7.761c3.431-4.743,3.187-11.558,3.09-17.486
			c-0.229-14.043,5.093-26.822-4.005-38.914c-2.709-3.601-6.122-6.222-8.274-10.256c-3.998-7.496-7.173-13.695-14.911-18.602
			c-7.144-4.531-17.174-9.562-25.647-7.185c-4.621,1.296-6.305,2.462-11.263,1.342c-8.673-1.958-17.269-4.964-25.355-8.592
			c-5.343-2.398-10.311-3.886-8.641-10.339c2.864-3.765,3.78-7.862,2.746-12.29c0.443-5.955-1.829-11.023-6.816-15.201
			c-6.27-7.859-13.271-16.076-22.651-19.897c-10.626-4.329-22.24-1.488-32.251,3.854c-3.674,1.961-12.956,10.378-16.699,10.432
			c-3.434,0.049-9.309-3.003-13.008-3.892c-9.276-2.228-17.83-5.127-26.971-7.616c-10.194-2.775-19.999,1.715-20.82,13.36
			c-11.176,2.4-34.333-13.208-40.44,2.987c-2.498,6.624-0.349,14.068-5.297,19.916c-4.176,4.935-11.675,6.276-17.683,6.353
			c-1.658-3.06-0.401-10.992-0.736-13.891c-0.495-4.279-1.694-8.444-2.358-12.69c-1.126-7.196-1.378-14.849,2.031-21.366
			c2.769-5.295,7.329-7.055,12.413-9.68c-1.984-5.232-5.856-9.035-7.767-14.464c-0.904-2.568-1.7-5.245-2.264-7.911
			c-1.18-0.233-2.371-0.364-3.574-0.395c-1.007-6.732,8.286-12.307,6.419-18.83c-2.182-7.623-18.701-5.694-24.519-9.353
			c-2.054-1.698-4.2-3.271-6.436-4.719c-1.325-1.264-2.291-2.757-2.899-4.482c-3.865-1.15-7.6-0.584-11.206,1.699
			c-6.697,2.251-13.529,3.972-20.495,5.163c-4.848,1.725-9.771,2.172-14.769,1.34c-2.061-2.321-3.111-5.059-3.148-8.216
			c-5.897-18.854-17.925-4.37-27.622,2.394c-5.121,6.278-10.959,7.704-17.515,4.277c-3.887-3.436-6.439-7.668-7.654-12.697
			c-0.19-4.195-2.241-6.874-6.153-8.036c-7.324-0.042-14.616,0.437-21.879,1.435c-8.106,0.764-16.116,2.1-24.028,4.01
			c-4.577,1.807-9.116,1.942-13.615,0.406c-1.601-3.795-3.767-7.246-6.497-10.353c-6.439-2.354-13.044-2.806-19.817-1.359
			c-7.138,0.34-13.528-1.655-19.17-5.986c-5.35-3.848-11.286-5.411-17.807-4.69c-8.199,1.371-10.756,7.303-16.836,11.661
			c-11.581,8.302-25.904-1.211-37.988,4.931c-5.907,3.002-11.664,10.136-8.991,16.683c3.01,3.663,5.514,7.654,7.513,11.972
			c2.044,5.539,5.079,10.46,9.105,14.762c8.104,6.692,15.881,2.705,24.808,1.528c1.122,3.845,0.327,7.529-2.384,11.049
			c-2.918,7.363-6.389,14.454-10.413,21.271c-4.286,9.613,1.839,13.716,9.177,19.686c9.386,7.634,24.65,16.583,37.157,17.295
			c3.443,0.196,6.957-1.208,10.162-1.773c3.094,0.732,6.229,0.72,9.405-0.036c4.187-1.767,8.375-3.535,12.561-5.305
			c5.836-1.045,10.716,3.359,15.905,0.707c1.737-1.24,3.208-2.758,4.414-4.555c2.336-1.827,4.984-2.883,7.94-3.168
			c7.443-1.758,6.734,0.402,10.452,7.05c4.164,7.445,7.728,9.477,15.672,10.748c2.616,1.166,5.355,1.531,8.215,1.094
			c2.826-0.846,5.696-1.491,8.611-1.933c7.766,1.501,7.4,8.068,10.364,14.238c1.873,3.898,4.822,5.096,4.13,10.027
			c-0.607,4.324-5.668,10.805-10.324,11.258c-0.282,0.027-11.458-5.793-8.834-4.745c-10.525-4.204-21.414-7.181-32.244-10.409
			c-1.036-6.12-2.814-6.017-8.125-3.925c-8.004,3.154-16.636,4.433-24.966,6.407c-4.303,1.02-16.94,1.992-19.016,5.971
			c-1.618,3.1,0.445,8.328,0.685,11.51c0.459,6.104,1.225,9.701,4.287,15.223c3.324,5.098,6.761,10.118,10.31,15.061
			c1.768,2.38,3.797,4.495,6.086,6.344c4.563,8.098-1.18,15.042-7.27,21.485c-2.91,3.976-6.713,6.801-11.41,8.477
			c-2.032-0.124-4.006,0.113-5.924,0.714c-0.582,9.669-5.041,20.665,1.955,28.199c4.727,5.09,10.069,8.351,13.711,14.493
			c3.08,5.195,2.185,11.002,4.971,15.882c4.558-10.877,14-7.043,21.102-1.44c7.827,6.175,10.427,18.844,20.165,23.308
			c5.021,2.301,12.161,2.266,17.19,0.291c6.678-2.622,8.449-7.653,9.942-14.129c2.852-12.377,4.947-23.667,12.53-34.086
			c-0.832,2.947-1.19,5.886-1.531,8.952c7.359-13.559,31.184-1.56,39.598,1.838c11.252,5.315,22.565,10.497,33.939,15.545
			c4.137,0.882,8.038,2.34,11.7,4.374c0.145,4.638-1.2,9.723-0.394,14.283c0.744,4.209,1.492,5.388,4.461,9.113
			c2.777,4.017,5.938,7.721,9.484,11.112c3.551,3.37,7.685,5.538,12.401,6.502c1.981,1.14,3.562,3.859,5.956,3.046
			c4.82-10.722,7.359-22.156,12.971-32.554c1.881-3.485,3.5-7.817,7.248-9.261c6.238-2.403,16.223-1.776,22.577-2.107
			c7.884-0.41,15.669-1.628,23.538-1.893c1.126,2.173,0.118,6.07,0.533,8.417c0.532,3.004,1.722,7.311,3.691,9.745
			c1.885,2.331,5.496,2.486,6.045,5.42c0.65,3.473-5.893,9.051-7.959,11.227c-3.164,3.58-6.646,6.827-10.446,9.742
			c-1.3,0.932-2.599,1.862-3.899,2.793c-1.428,3.552,4.756,6.293,6.938,7.988c5.126,3.98,14.393,8.447,11.27,16.515
			c-3.525-0.013-4.08-2.572-7.886-1.009c-6.395,2.627-6.763,11.506-8.407,16.993c-1.586,5.29-3.155,7.825-8.052,11.018
			c-7.566,4.934-22.358,8.656-23.943,19.195c-1.143,7.608,5.048,11.533,10.21,16.468c4.041,4.274,8.515,8.026,13.421,11.257
			c2.861,1.17,5.52,2.687,7.977,4.551c4.909,4.706,7.724,10.259,13.509,14.501c9.671,7.09,15.292,6.071,25.192,1.214
			c-7.826,3.399-3.513,25.641-2,32.207c1.472,6.394,4.565,8.767,10.976,10.62c8.705,2.515,18.422,2.736,27.29,5
			c4.458,1.139,11.074,0.904,14.314,4.408c1.798,1.945,1.78,4.839,3.922,6.833c5.671,5.279,16.127,6.471,18.08,15.601
			c1.198,5.601-2.247,11.706-1.589,17.482c0.756,6.643,3.479,8.331,6.169,13.414c4.55,8.596-3.377,8.231-10.487,7.148
			c-5.455-0.831-11.124-1.266-16.312-3.294c-5.015-1.96-6.373-2.94-10.727,0.557c-5.442,4.369-11.218,11.459-15.926,16.629
			c-1.408,1.546-8.254,8.22-5.927,11.535c7.115,0.292,14.364,1.919,15.521,9.853c1.003,6.879-5.842,9.766-7.32,15.261
			c-1.51,5.611,1.365,6.345,4.932,9.805c5.064,4.914,7.58,7.427,5.464,14.8c-2.623,9.135-10.996,17.176-19.153,21.306
			c-9.351,4.734-19.267,4.492-28.911,0.594c-2.363-0.954-11.723-6.91-13.293-10.729c-1.1-2.676,0.95-3.206,0.661-5.592
			c-0.61-5.02-13.209-8.447-15.951-9.778c-8.07-3.917-22.092-9.404-18.327-20.78c0.854-2.58,2.923-4.122,4.031-6.421
			c2.456-5.093,2.323-9.307,0.088-14.786c-2.45-6.006-8.342-8.784-11.364-14.176c-2.313,7.598-15.913,6.39-20.883,3.556
			c-6.201-3.537-12.39-10.159-15.318-16.415c-3.71-7.924,0.058-11.607,3.5-18.95c-9.429-7.025-12.592-20.546-7.601-31.207
			c2.473-5.28,4.394-13.513-0.472-18.506c-1.055-0.142-2.101-0.336-3.137-0.582c-0.684-0.835-1.282-1.726-1.794-2.676
			c-3.544-4.7-2.257-10.816-4.294-15.937c-1.824-4.586-1.665-3.219-7.22-4.052c-5.773-0.866-7.437-2.379-8.014-7.64
			c-1.512-13.769,4.658-23.828-10.895-31.385c-8.584-4.17-20.601-6.333-29.456-1.887c-4.507,2.263-5.146,4.642-10.756,3.911
			c-4.357-0.569-9.883-0.858-14.179-1.864c-7.824-1.832-7.962-10.596-8.503-17.205c-0.154-1.88-1.052-8.261-0.141-11.535
			c-1.351,1.154-3.143,1.559-4.779,1.088c-3.944-1.135-5.572-11.067-6.508-14.675c-2.251-8.683-2.38-9.127-11.118-9.051
			c-8.171,0.07-14.772,2.962-22.629,3.972c-8.895,1.144-10.862,3.406-16.441,10.907c-3.791,5.095-11.133,16.068-18.965,14.073
			c-6.527-1.662-4.948-6.974-6.054-11.458c-1.254-5.078-3.078-3.376-7.403-4.35c-5.429-1.223-9.126-6.901-15.102-5.763
			c-6.038,1.151-10.973,5.245-12.162,10.978c-1.099,5.301-2.955,8.269-5.744,13.028c-2.416,4.122-5.309,7.894-6.736,12.231
			c-1.78,5.408-2.645,10.792-7.21,15.015c-5.176,4.787-14.642,5.099-19.274-0.663c-3.462-4.307-4.03-12.81-9.608-14.707
			c-4.355-1.482-11.72,0.012-16.317,0.011c-5.551,0-11.804-1.011-17.223,0.017c-4.533,11.358,0.329,30.668-16.936,31.039
			c-1.573,0.034-6.083-1.253-7.666-0.023c-0.78,1.871-1.521,3.758-2.222,5.66c-1.828,3.677-3.867,7.233-6.118,10.669
			c-2.325,3.345-13.431,16.534-19.258,12.174c-2.229-1.668-1.849-3.687-1.299-5.942c0.65-2.663,6.193-7.444,5.173-10.534
			c-1.189-3.604-6.75-1.971-9.117-4.59c2.517-12.941,14.815-20.464,26.188-24.826c3.669-1.407,6.42-4.079,2.896-7.882
			c2.778-4.032,6.1-9.539,9.454-13.061c0.771-0.809,5.224-2.839,5.527-3.454c1.088-2.211-1.003-2.724-1.205-4.907
			c-1.005-10.843,12.133-3.57,14.37-12.121c2.698-10.317-6.974-25.927-18.522-23.345c-3.659,0.819-11.064,7.004-14.648,6.107
			c-3.408-0.853-1.466-5.567-2.181-8.311c-4.275-0.697-12.393,7.865-16.907,9.395c-2.46-2.612-0.058-5.023-1.186-7.656
			c-1.102-2.572-2.977-1.442-4.895-3.342c-1.757-1.74-1.726-3.288-3.449-4.782c-1.237-1.071-4.517-2.78-6.326-2.204
			c-2.334,0.743-4.501,7.54-6.469,10.269c-4.665,6.467-8.203,15.443-18.316,14.817c-4.77-0.296-6.066-4.585-10.034-6.426
			c-3.811-1.767-7.191-2.009-10.844-0.453c-2.306,0.981-3.431,1.168-5.21,3.027c-0.242,1.061-0.531,2.109-0.864,3.145
			c-1.232,0.601-2.302,1.417-3.21,2.45c-3.478,4.793-6.287,8.393-11.357,2.529c-2.175,1.007-4.849,2.476-7.094,3.452
			c-7.36-9.602-16.827-0.924-18.979,7.529c-1.316,5.168,0.804,10.041-2.625,15.048c-2.06,3.009-5.604,6.016-9.478,4.162
			c-0.068-4.194-2.202-6.638-6.524-6.008c-0.944,0.138-8.805,1.979-9.189,2.326c-3.204,2.904,0.946,2.961,1.172,5.944
			c0.226,2.974-2.976,6.823-5.1,8.429c-4.886,3.695-10.885,1.128-16.712,1.871c-3.348,0.426-8.465,3.524-10.994,5.808
			c-3.587,3.237-1.842,1.951-0.471,5.879c2.613,7.488-2.459,16.917-10.143,17.251c-6.63,0.288-15.242,1.293-21.433-0.975
			c-13.572-4.974-7.58-23.592-0.02-31.152c9.709-9.709,24.998-11.233,31.47-25.057c3.311-7.072,2.147-13.272-0.677-20.028
			c-2.263-5.415-3.646-2.881-7.428-5.43c-3.206-2.161-2.14-7.339-1.472-10.507c1.43-6.783,7.718-18.06,14.992-19.969
			c4.428-1.162,4.666,0.995,7.673-2.458c3.252-3.733,4.491-8.257,9.218-11.145c4.136-2.526,9.914-3.648,14.75-3.035
			c1.984,0.251,4.935,2.472,6.421,2.398c5.824-0.29,6.929-19.494,8.182-23.335c1.68-5.151,2.172-11.324,4.686-16.182
			c1.756-3.391,2.83-2.452,5.198-4.393c5.137-4.208,6.226-11.704,10.752-16.694c4.05-4.464,4.165-3.386,8.216,0.666
			c2.52,2.521,4.329,6.101,6.644,8.403c4.478,4.452,19.222,2.464,24.379,0.047c8.088-3.789,11.497-12.348,12.494-20.403
			c7.256-1.02,14.76-8.583,22.435-6.637c2.74,0.695,3.749,2.804,7.152,2.25c2.942-0.48,4.686-2.435,7.144-4.209
			c1.736-1.251,6.046-5.935,8.329-4.993c3.293,1.359,1.627,7.571,2.134,10.13c1.518,7.67,5.127,8.188,11.865,9.57
			c0.895,3.369-1.614,8.81,2.215,10.178c2.457,0.878,4.17-1.253,6.213-1.794c2.895-0.767,5.666,0.242,8.442-0.344
			c2.197-0.464,3.835-1.885,6.066-2.277c1.621-0.284,3.659,0.648,5.217,0.224c4.677-1.274,4.309-6.223,6.564-10.453
			c2.386-4.475,4.039-7.472,8.746-8.215c4.021-0.635,6.644,1.48,10.328,2.19c6.132,1.181,17.465-5.399,22.639-8.281
			c5.934-3.306,11.977-9.669,13.992-16.507c0.895-3.038,0.649-6.84-0.047-9.83c-0.127-0.542-1.484-1.47-1.706-2.409
			c-0.466-1.97,0.851-4.48,0.26-6.385c-1.08-3.485-4.805-3.463-4.357-8.178c0.339-3.571,2.133-4.667,1.735-8.128
			c-0.325-2.826-2.746-6.348-3.247-8.735c-0.712-3.394-1.226-6.449-2.065-9.822c-0.834-3.358,0.046-6.354-3.696-8.078
			c-2.345-1.081-6.246-0.195-8.641,0.298c-2.036,0.419-5.16,1.984-7.194,3.093c-3.63,1.978-1.869,3.493-6.114,1.161
			c-6.31-3.466-2.911-13.332-4.621-19.111c-2.332-7.878-6.662-6.712-12.878-3.606c-6.095,3.044-8.815,8.308-12.857,13.889
			c-3.485,4.812-4.958,12.171-10.232,15c-6.794,3.643-11.06-4.099-13.886-9.292c-3.865-7.102-1.38-13.569-9.83-18.15
			c-6.009-3.257-12.132-3.4-4.734-9.626c4.324-3.638,13.835-8.298,8.689-14.81c-0.48-0.608-3.499-1.902-4.468-2.73
			c-0.727-0.621-1.316-1.413-2.017-2.057c-2.56-2.355-5.74-3.967-8.377-6.22c-3.685-3.15-6.704-7.075-10.401-10.239
			c3.638-5.273-3.793-6.972-5.594-11.836c8.933-7.349-0.609-18.952-4.994-25.512c-2.169-3.245-6.278-7.962-10.236-9.096
			c-3.583-1.026-4.903,1.249-8.278,1.809c-2.445,0.406-4.761,0.395-7.197,0.911c-6.878,1.457-6.969,0.759-9.727-5.14
			c-2.065-4.417-6.55-7.693-9.742-11.512c-1.923-2.3-3.434-3.674-5.795-5.511c-1.703-1.325-3.46-4.296-5.038-5.249
			c-3.359-2.032-11.062-0.137-14.986-0.339c-2.458-0.127-3.823-1.258-5.581-1.62c-2.13-0.439-5.493,0.316-7.355-0.875
			c-4.536-2.905-1.801-8.154-8.593-7.395c-1.643,0.184-4.128,1.595-5.77,2.145c-1.723,0.577-4.292,1.18-6.172,1.948
			c-2.316,0.945-2.638,2-5.038,2.219c-2.1,0.192-5.398-0.574-7.765-0.557c-2.047,0.016-4.135-0.156-6.172-0.047
			c-3.028,0.162-5.413,2.238-8.222,2.31c-7.526,0.193-4.138-8.285-10.759-4.925c-8.796,4.464-12.884,13.243-20.11,19.121
			c-0.115,0.571-2.286-2.973-2.401-2.402c-4.651,0.904-11.103,2.075-14.622,5.919c-2.822,3.082-3.072,7.744-5.758,11.053
			c-4.345,5.353-12.712,4.033-16.698,9.017c-3.946,4.934,2.276,13.873-0.724,20.473c-4.146,9.12-8.923,0.336-15.703,2.503
			c-4.461,1.426-6.936,6.608-7.806,10.909c-1.513,7.482,2.592,9.176,5.627,15.07c1.283,3.879,2.565,7.759,3.848,11.638
			c0.463,3.526,0.925,7.051,1.388,10.577c1.297,1.744,1.747,2.735,3.95,1.08c3.422,6.393-5.341,10.195-9.845,12.164
			c-4.981,0.386-7.831,3.082-8.549,8.088c0.353,2.525,0.705,5.049,1.058,7.574c4.863,7.816,16.589,3.918,18.383,15.479
			c1.644,10.591-11.523,15.804-19.016,18.237c2.577-5.609,3.206-8.692-0.535-14.016c-3.375-3.302-6.888-6.447-10.54-9.434
			l-1.249-3.643c-3.954-6.638-10.253-18.931-5.143-26.389c4.019-5.864,8.796-5.49,4.954-12.839c-1.996-0.344-3.9-0.106-5.712,0.714
			c-1.158-5.846-1.327-11.527-3.18-17.211c-8.989,3.373-11.131,15.296-21.944,16.018c-4.816,0.321-14.847-1.275-18.61,3.187
			c-1.835,2.213-2.032,4.746-0.589,7.598c1.016,6.508-0.35,12.409-4.099,17.705c-4.463,0.636-8.553-0.209-12.271-2.535
			c-2.126-1.297-4.4-2.168-6.823-2.613c-2.863-0.075-2.322,0.668-4.468,0.79c-4.838,0.275-13.526-1.083-17.165,3.634
			c-3.111,4.032,1.294,9.835-2.772,14.559c-5.759,6.689-15.02,2.591-21.273,7.461c-5.255,4.092-3.12,14.131-5.568,20.381
			c-1.484,3.787-4.322,12.637-8.073,14.904c-2.306,1.393-6.187-0.315-8.033,0.772c-2.883,1.7-4.031,8.072-3.459,10.939
			c0.864,4.337,3.995,6.382,7.707,8.007c4.755,2.08,7.861,3.386,10.391,8.512c2.387,4.837,3.363,10.423,3.91,15.728
			c-5.822-4.073-9.151-2.104-13.156,2.873c-1.82,2.262-10.908,15.674-9.288,20.271c6.242,1.316,14.243,1.542,20.073,4.016
			c3.401,1.442,6.288,5.264,9.178,7.576c6.38,5.105,10.768,8.673,18.938,7.411c3.682-2.368,6.416-1.819,8.201,1.646
			c1.863,1.667,3.373,3.608,4.529,5.824c3.154,3.608,6.731,5.709,10.224,8.984c4.487,4.206,4.602,8.717,11.236,7.46
			c6.2-1.173,9.179-0.911,14.055,3.573c-1.937,9.644-6.553,9.931-15.058,9.208c-3.18-0.271-13.889-3.777-15.446-1.934
			c0.55,1.674,1.574,2.92,3.072,3.738c-3.19,8.016-6.138,16.126-9.108,24.226c-4.073,1.685-7.012-0.002-8.816-5.058
			c-3.237-1.305-6.559-1.702-9.965-1.192c-3.173-7.741-3.906-20.209-14.323-20.347c-4.692,3.24-9.754,4.662-15.184,4.266
			c-3.284,1.075-5.931,0.242-7.939-2.498c-2.741,1.157-5.291,3.086-7.992,4.421c-0.13,8.192,11.549,15.779,15.316,22.97
			c-4.32,6.96-15.385,7.304-21.784,11.82c-8.871,6.261-15.462,19.113-16.647,29.67c2.856,2.99,8.843,1.481,12.423,1.317
			c3.238,5,4.582,10.566,4.034,16.698c-0.374,3.173-0.544,6.353-0.511,9.539c3.063,6.154,13.745,9.086,20.5,10.415
			c2.719-4.338,3.955-9.093,3.705-14.264c1.816-2.943,3.917-3.435,6.304-1.478c4.973,0.332,5.645,3.09,10.222-0.163
			c3.934-2.796,11.745-8.811,15.442-2.039c2.893,5.298-3.042,17.243-8.296,19.891c-7.946,4.006-12.273-0.481-19.038,8.438
			c-5.566,7.338-2.615,9.342,2.354,14.504c4.679,4.859,6.839,12.105,0.806,17.457c-4.951,4.392-16.86,4.534-19.258,10.466
			c2.998,4.51,6.256,6.704,6.461,12.244c0.36,9.734-10.69,12.365-12.187,20.617c8.897,5.867,17.947,11.471,26.91,17.228
			c6.061,3.893,9.342,7.408,7.71,14.765c-1.576,7.101-3.164,10.169,2.166,17.255c4.859,6.458,10.601,11.215,18.387,6.91
			c4.722-2.611,7.023-7.596,8.246-12.395c1.599-6.278,2.992-9.773,6.932-15.26c3.609-5.625,8.063-10.378,13.365-14.261
			c1.72-2.655,4.03-3.695,6.929-3.122c1.92-2.566,3.689-5.234,5.308-8.002c1.897-4.818,5.582-7.624,11.056-8.418
			c4.985,3.006,8.326,7.19,10.024,12.553c1.291,3.909,3.414,7.299,6.37,10.171c3.205-1.099,6.455-1.247,9.75-0.447
			c4.546,10.397,0.456,10.312-6.09,16.984c-5.56,5.286-6.109,11.079-1.644,17.376c7.199,5.73,15.183,6.981,23.951,3.752
			c9.829-3.01,16.904-15.506,26.756-15.704c12.822-0.258,16.516,14.533,21.591,23.326c13.353-1.728,41.059,1.418,47.44,15.018
			c2.961,3.918,2.756,8.061-0.615,12.428c-2.015,4.616-5.382,7.131-10.102,7.545c-4.982-1.043-5.21-9.409-11.697-8.477
			c-4.876,9.945,8.027,22.276,0.854,32.742c-2.913,4.251-6.534,2.02-10.48,3.154c-2.523,0.724-1.816,0.754-3.604,1.908
			c-7.429,4.795-17.168,4.807-16.116,15.821c0.513,5.368,6.052,10.309,5.386,15.818c-0.718,5.941-8.307,10.507-13.268,11.939
			c-0.986-3.299,1.424-9.492,1.649-13.213c0.333-5.501,1.374-10.067,2.467-15.41c1.924-9.409-3.324-11.382-9.867-16.47
			c-7.11-5.53-6.581-7.951-4.869-15.787c1.432-6.556,3.535-15.062-6.04-15.193c-3.06,0.096-5.803,0.985-8.23,2.668
			c-1.623,0.814-3.106,1.835-4.448,3.063c-3.618,0.264-5.4-4.004-7.863-6.169c-3.383-2.973-7.95-5.432-12.554-4.12
			c-1.341,5.477,2.043,10.49,2.11,15.853c0.112,9.036-6.307,15.537-12.202,21.437c-4.594-0.719-4.345-7.622-8.68-9.883
			c-3.342-1.743-9.692-1.45-13.077,0.356c-4.955,2.645-6.056,10.348-8.336,15.113c-1.62,6.67-5.333,10.874-11.137,12.61
			c-0.936,0.851-1.824,1.361-2.674,1.604c1.545,3.401,2.379,7.988,1.39,9.567c-2.844,4.542-7.83,1.917-12.069,4.622
			c-12.687,8.098,13.855,31.353,12.643,41.72c0.958,2.873,0.163,5.168-2.385,6.883c-1.73,0.413-2.678,1.54-2.845,3.383
			c-1.52,3.712,0.461,8.377-0.667,12.234c-2.125,7.268-10.659,16.108-17.927,8.878c-1.206,5.879-3.209,15.014-8.113,19.342
			c-5.937,5.241-11.626-1.105-16.804-3.648c-4.4-2.161-7.294-3-12.056-3.227c-4.836,0.481-8.962-0.858-12.378-4.015
			c-4.43-1.667-6.412-5.052-5.945-10.154c3.51-4.665,8.241-6.367,14.194-5.108c5.426,0.316,10.855,0.519,16.289,0.609
			c6.239-0.437,15.175-2.689,20.887-5.155c8.397-3.626,8.752-7.09,2.925-12.513c-4.596-4.277-12.089-8.578-11.339-16.339
			c1.033-10.698,10.959-9.698,8.424-23.064c-3.608-7.179-7.635-14.113-12.081-20.802c-1.051-5.319-0.615-10.457,1.307-15.415
			c1.889-4.936,2.369-10.052,1.443-15.349c-3.33-4.237-7.679-6.026-13.048-5.367c-6.899-1.268-6.197-3.004-8.691-9.074
			c-2.785-6.779-7.518-11.064-15.055-9.363c-13.062,2.948,1.488,13.044,1.352,21.254c-0.132,7.931-5.488,21.559-15.838,13.635
			c-5.012-3.837-4.874-11.403-8.897-16.092c-2.752-1.376-4.487-3.489-5.206-6.338c1.73-2.867,3.796-5.471,6.199-7.812
			c2.841-5.516-0.133-7.24-3.899-12.326c-2.606-3.52-7.081-8.098-8.692-12.392c-2.211-5.895,3.522-9.137,4.621-15.064
			c-3.943-3.304-8.193-4.248-9.871-9.761c-1.925-6.325,2.572-11,0.89-16.683c-13.065-4.594-1.143-9.944-2.716-18.627
			c-0.632-3.488-4.169-5.968-4.17-9.664c-0.001-3.977,4.627-8.128,3.881-12.093c-0.785-4.168-6.248-4.341-7.567-8.024
			c-0.075-2.205,0.391-4.292,1.398-6.26c-0.323-2.467-1.654-4.01-3.992-4.631c-6.028-4.577-10.542-4.336-11.084,3.246
			c-0.375,5.245,0.526,29.768-5.414,31.59c-3.249-9.107-7.523-15.545-7.004-25.87c0.34-3.492,0.826-6.962,1.457-10.412
			c-1.69-3.443-2.535-7.112-2.533-11.008c1.517-7.25,5.376-12.967,11.577-17.152c4.67-3.561,8.79-7.659,12.36-12.293
			c-0.156-5.152-1.472-10.05-3.947-14.692c-3.168-8.449-2.323-16.326,2.537-23.628c4.691-5.169,9.704-3.272,9.823-10.161
			c0.134-7.748-7.433-7.513-11.478-12.246c-9.274-10.85,7.869-23.851,1.256-34.243c-3.402-2.332-6.758-4.727-10.068-7.187
			c-2.585-2.418-5.348-4.607-8.289-6.568c-8.253,2.089-6.735,16.548-9.877,22.718c-0.283,3-1.757,5.216-4.422,6.645
			c-0.895-0.029-1.789-0.058-2.684-0.088c-4.09,2.915-4.937,8.892-11.7,8.461c-8.744-0.558-13.734-18.358-22.414-12.629
			c-7.981,5.269-3.748,18.543-2.312,25.021c2.199,9.918,5.344,19.4-1.036,28.301c-4.254-0.641-7.887-2.516-10.9-5.624
			c-1.977-2.568-4.401-3.221-7.271-1.96c-4.139,2.03-5.05,10.285-5.52,14.304c-0.787,6.738,4.464,18.496-0.853,23.977
			c-4.804,4.953-11.901,0.002-13.054,7.432c-0.951,6.13,3.049,13.11,0.867,19.637c-2.56,7.658-7.245,4.834-12.477,1.584
			c-10.215-6.344-13.103-2.455-16.123,8.434c-3.422,12.335-6.309,25.632-6.495,38.474c1.843-6.356,6.169,8.277,6.146,8.198
			c1.894,6.371,3.082,12.82,4.249,19.354c-5.781,1.421-10.528-1.615-16.49,1.263c-2.789,1.346-7.358,5.632-8.531,8.646
			c-2.871,7.383,6.956,16.351,10.163,22.808c2.175,4.38,6.432,12.508,2.942,17.39c-2.341,3.276-8.238,3.567-11.268,5.951
			c-2.835,2.231-4.881,5.312-7.533,7.766c-2.03,1.879-5.472,3.128-6.125,5.968c8.401,1.709,8.521,1.247,9.716,11.05
			c0.738,6.059,1.008,21.559-6.438,25.541c3.182,0.855,3.895,9.497,3.608,11.838c-0.991,8.102-4.917,12.465-12.904,9.374
			c-3.577,2.828-0.574,16.066,0.187,20.674c1.335,8.093,3.07,10.203,10.394,10.863c6.973,0.628,12.494,0.612,13.993,8.857
			c1.578,8.678,0.024,18.199,0.916,27.003c0.708,6.991,2.602,9.473,7.439,14.307c4.725,4.721,10.464,12.46,17.11,14.845
			c10.375,3.723,11.669-11.657,14.264-17.116c2.235-4.703,4.834-7.707,9.485-9.75c-0.129-12.924,16.001-20.489,27.458-15.684
			c4.929,2.067,8.424,7.294,7.925,12.673c-0.534,5.75-3.02,5.474-7.816,7.749c-10.946,5.192-22.061,16.179-20.609,29.505
			c0.62,5.693,1.642,6.491,6.682,5.949c5.173-0.557,7.417-3.782,11.016,1.614c3.248,4.868,1.476,13.594,5.919,17.731
			c6.068-5.556,12.06-7.56,19.964-9.951c2.405-0.728,7.207-1.33,8.79-3.719c2.095-3.161,0.461-5.993,3.106-9.241
			c3.571-4.383,10.365-6.371,15.382-8.908c6.362,3.14,6.778,15.497,11.436,21.118c8.879,10.717,30.27,19.086,40.363,5.701
			c6.448-8.55,20.555-35.267,32.711-19.486c1.78,4.873,3.423,9.791,4.928,14.755c2.473,4.732,5.077,9.39,7.812,13.975
			c2.513,4.286,6.556,13.161,12.224,14.75c7.896,2.213,18.371-3.409,18.61,10.225c0.179,10.158-7.776,13.001-15.963,12.634
			c-1.287,3.181,2.119,9.077,3.932,11.872c3.026,4.665,6.309,4.904,11.257,6.527c5.927,1.945,11.618,3.182,13.061,10.911
			c0.838,4.487,0.329,13.791-4.071,16.757c-4.795,3.231-14.942-0.498-18.024-4.844c-2.538-3.58-2.996-15.763-10.452-12.474
			c-0.678,3.285-0.058,6.151-3.426,7.871c-2.415,1.233-5.758,0.857-6.919-1.318c-1.876,10.444-18.737,17.86-24.919,7.729
			c-1.65-2.705-3.893-7.903-0.284-10.157c2.164-1.351,4.98-0.737,7.451-2.464c2.861-1.999,6.717-5.551,9.171-8.179
			c4.726-5.059,0.688-0.384,0.703-4.568c0.024-7.195-1.084-16.474-3.064-23.34c-7.19,1.85-23.749,18.9-29.003,6.833
			c-1.531-3.516,0.617-8.951-2.104-11.91c-5.362-5.832-19.72-3.21-25.769-0.759c-1.536,0.95-3.157,1.723-4.864,2.319
			c-2.638-0.902-5.356-1.344-8.156-1.326c-7.063,1.054-10.561,9.577-13.9,14.597c-4.527,6.805-8.703,10.557-16.962,10.057
			c-7.836-0.475-16.549-2.535-23.764-5.662c-2.109,3.656-0.834,9.088-2.87,13.228c-2.828,5.75-3.385,4.105-6.871,6.858
			c-2.995,2.366-4.946,5.269-7.523,8.243c-4.233,4.883-8.434,6.772-13.227,10.577c1.271,2.374,3.226,1.138,5.268,2.511
			c2.686,1.806,3.297,6.17,6.273,8.158c3.604,2.408,7.097,2.416,10.308,5.765c2.311,2.411,5.364,10.12,8.936,11.536
			c4.368-5.34,7.05-9.94,13.821-11.731c2.976,3.653,5.209,10.559,9.98,12.286c3.121,1.13,6.464-0.49,9.599,0.121
			c-3.232,13.705,16.511,9.779,17.021,22.76c-4.522,2.319-11.002,4.996-14.792,8.186c-6.577,5.536-7.43,13.819-7.696,22.204
			c2.271,0.595,4.579,0.625,6.924,0.09c6.431,1.412,10.854,5.259,13.268,11.543c3.174,10.358-5.047,18.41-10.607,25.764
			c-3.125-1.639-2.576-5.442-3.364-8.461c-0.91-3.492-0.879-3.667-3.375-6.795c-3.009-3.77-7.013-7.824-9.196-12.213
			c-2.41-4.842-1.473-6.464-0.596-11.473c1.232-7.041-3.558-8.398-9.178-12.286c-2.553-1.767-4.302-3.404-6.821-4.924
			c-1.747-1.054-6.358-2.11-7.556-4.001c-2.266-3.576-0.89-8.801-4.393-12.563c-5.054-5.428-8.138-1.451-14.004-3.703
			c-3.367-1.293-6.699-5.836-8.753-8.571c-5.212-6.938-11.296-22.611-20.527-24.155c-4.2-0.702-6.138,3.305-10.075,3.49
			c-4.705,0.221-11.41-5.041-14.259-7.94c-5.199-5.29-6.501-12.208-12.076-17.087c-5.008-4.382-11.691-5.716-17.366-9.046
			c-2.785,3.608-3.773,12.375-4.66,16.812c-0.773,3.867-1.181,4.644-0.094,8.971c1.962,7.806,3.454,15.642,9.188,21.653
			c1.914,2.008,6.845,4.136,7.318,6.773c-2.805,3.407-8.999,3.443-10.669,6.19c0.569,3.59,0.931,7.201,1.087,10.833
			c-0.111,3.925,1.236,7.267,4.042,10.024c3.868,3.784,9.742,4.663,13.133,9.134c6.466,8.526-0.589,15.043-4.771,22.368
			c-5.7,9.984-4.777,23.287-3.57,34.279c0.437,3.977,0.256,8.974,3.444,11.301c2.334-0.093,4.622,0.223,6.865,0.946
			c6.151,2.376,9.294,7.145,9.427,14.308c3.086,13.176-0.006,26.966-1.432,40.012c9.117-4.153,14.361,29.644,16.189,34.592
			c1.898,5.14,5.36,8.8,10.387,11.056c3.294,1.479,7.348,0.746,10.365,2.547c1.372,4.909-5.881,6.72-8.176,9.88
			c-5.532,7.617-3.769,15.548,0.783,23.207c5.391,9.071,20.882,24.083,33.192,23.605c6.516-0.254,12.305-10.792,19.085-6.544
			c5.029,3.151,1.976,12.002,8.571,13.052c-0.208,5.547-10.185,12.494-14.137,15.828c-3.137,2.646-6.077,5.179-9.953,6.694
			c2.368-0.531,5.797,1.826,7.11,3.711c1.4,2.012,0.891,5.461,2.189,7.593c1.808,2.969,5.253,3.828,8.04,5.443
			c10.011,5.804,13.069,17.301,14.683,28.069c1.956,13.055,7.058,17.726,18.827,23.492c8.454,4.142,14.089,7.806,14.45,17.547
			c0.318,8.584,3.565,13.203,11.33,16.773c3.588,1.649,7.722,2.151,11.036,4.325c3.877,2.542,4.929,5.909,6.39,10.137
			c2.49,7.205,5.274,12.632,9.789,18.748c2.861,3.876,6.612,7.349,8.667,11.542c1.475,3.008,0.857,6.976,4.457,8.795
			c1.785,0.902,4.82,0.137,6.711,0.158c5.15,0.057,14.01,1.448,13.524-6.037c-0.392-6.035-6.062-10.418-6.228-16.943
			c-0.067-2.657-0.197-5.069-0.425-7.644c-0.063-0.711-1.502-0.703-1.355-2.182c0.434-4.361,6.118-6.599,9.127-8.17
			c2.155-1.125,5.052-1.639,4.751-5.181c-0.031-0.368-0.243-0.76-0.424-1.148c6.909,1.545,17.569-5.411,22.326-8.226
			c4.764-2.819,7.518-5.557,13.192-6.809c5.946-1.313,12.439-3.298,18.511-3.586c-7.144,9.255-12.143,17.937-2.652,27.096
			c5.064,4.888,11.897,8.275,17.717,12.261c1.932,1.324,4.796,2.894,6.602,4.989c-0.748-2.505,0.144-5.302,2.118-6.855
			c3.303-2.597,14.386-1,18.478-0.414c9.162,1.312,17.171,4.853,17.915,14.229c2.748,0.487,3.939-2.812,6.286-3.654
			c2.716-0.973,5.28-0.481,7.812,0.714c3.321,1.567,11.783,8.439,12.124,12.303c0.501,5.679-6.378,14.457-10.271,17.633
			c-5.463,4.457-13.748,4.924-18.654,9.474c1.138-1.818,2.513-3.458,3.68-5.261c-3.19,3.627-9.692-0.421-12.039,3.385
			c13.061,15.181,32.464,24.144,47.664,36.888c6.346,5.321,12.904,11.117,18.155,17.579c1.488,1.83,3.31,6.277,5.496,7.638
			c6.451,4.018,16.851-7.186,22.167-3.799c6.033,3.845-4.951,7.372-6.368,10.188c7.19,16.588,23.59,24.52,38.674,32.772
			c6.623,3.623,20.759,9.323,21.06,18.449c7.268-1.107,10.767-1.249,18.29,1.068c9.305,2.867,22.231,9.043,32.316,7.147
			c6.974-1.311,5.98-4.327,7.058-9.863c1.549-7.958,6.014-13.835,10.919-19.909c3.928-4.865,3.831-7.061-2.001-9.075
			c-7.825-2.703-12.785-5.906-15.017-14.564c-1.526-5.918-1.4-7.47-7.318-8.687c-4.394-0.904-15.685,0.351-17.918-4.136
			c-3.595-7.226,8.333-18.033,12.564-22.232c3.881-3.851,6.708-6.125,8.349-11.074c2.294-6.919,1.682-18.905,7.754-23.814
			c5.701-4.608,10.023-0.612,14.761,2.249c8.254,4.982,23.04-1.356,29.918-7.421c14.717-12.975-4.084-23.887-3.453-38.141
			c5.947-0.078,14.604,7.658,19.748,5.108c4.805-2.382,4.902-12.141,8.39-16.081c2.573-2.906,8.892-4.929,12.836-2.888
			c2.459,1.272,2.608,4.022,5.755,3.961c-1.136,4.732-4.198,9.31-5.078,13.942c-0.879,4.623,0.294,2.76,2.755,5.73
			c2.617,3.16,3.542,7.099,5.263,10.846c3.7,8.056,0.65,12.26-6.268,17.464c-2.892,2.688-6.297,4.453-10.215,5.297
			c-2.169,0.353-4.33,0.351-6.484-0.004c-3.849,0.84-3.167,0.265-5.381,3.894c-4.498,7.374-4.711,18.594-10.262,25.225
			c5.343-1.068,10.54-0.559,15.406,2.02c3.139,1.981,6.137,4.154,8.996,6.521c1.81,1.532,3.282,3.325,4.418,5.382
			c4.438,1.293,5.724-2.459,7.619-5.953c1.952-3.601,4.844-6.504,6.637-10.156c3.646-0.802,4.793,4.779,7.772,5.745
			c2.468,0.801,5.033-0.238,7.201-1.422c4.634-2.53,5.329-4.517,7.348-10.169c1.33-3.724,0.582-8.752,1.83-12.001
			c1.25-3.255,1.676-1.115,3.697-3.203c2.364-2.442,2.685-6.697,5.618-8.717c2.835-1.952,4.096-1.951,6.686,0.557
			c4.003,3.874,5.372,8.796,11.608,11.21c6.482,2.51,15.038,1.847,20.797-2.673c4.578-3.593,2.855-6.762,3.056-12.06
			c0.247-6.55,7.009-10.878,10.342-16.88c1.784-3.212,3.944-5.788,6.179-8.699c3.757-4.891,3.477-6.529,9.823-4.181
			c2.237,0.828,4.113,2.259,6.469,2.761c3.777,0.807,9.282-2.269,11.998,1.705c-2.805,5.941-6.634,15.145-2.744,21.868
			c3.485,6.024,12.308,1.476,15.406,9.578c4.531,11.854-4.444,15.794-12.772,20.734c-4.645,2.755-8.875,6.379-13.055,9.789
			c4.513,1.929,9.514,2.657,9.248,8.131c-0.232,4.781-2.756,8.906-1.886,14.043c1.013,5.988,9.248,6.568,9.959,12.092
			c0.763,5.937-8.815,18.092-14.824,17.195c-5.115-0.764-4.644-3.314-5.226-7.206c-0.709-4.746-2.857-7.885-6.182-11.336
			c-3.066-3.182-6.322-7.52-10.66-8.96c-10.19-3.381-18.866,10.019-26.323,14.986c-4.187,2.789-8.506,8.2-13.452,5.228
			c-5.388-3.239-6.29-7.815-13.63-7.077c-7.028,0.706-12.658,4.387-20.028,4.141c-2.172-0.073-3.528,0.176-5.295-1.212
			c-1.439-1.13-1.276-4.114-3.051-4.899c-1.555-0.688-15.831,4.446-17.002,5.762c-3.761,4.228-1.96,13.029,0.271,17.57
			c2.484,5.052,5.106,7.537,4.126,13.708c-0.972,6.12-8.188,12.447-8,18.092c2.642,0.652,5.142-0.065,7.795,0.435
			c3.808,8.808-7.346,21.535-15.062,23.683c-2.071,0.577-5.232,1.767-7.399,0.981c-3.155-1.143-1.985-4.186-4.73-5.843
			c-6.52,2.531-15.882,12.42-15.517,20.041c0.34,7.102,3.862,6.29,9.77,6.251c2.786-0.018,5.684,0.26,8.453,0.094
			c3.01-0.182,6.551-2.306,9.323-2.065c4.15,0.361,4.21,2.435,9.399,1.023c5.461-1.485,10.761-3.725,16.314-4.867
			c7.342-1.51,10.099,2.134,15.995,5.352c5.817,3.175,5.418,4.17,7.102,10.28c1.155,4.188,4.332,8.617,8.083,10.892
			c5.591,3.391,12.174,1.219,18.246,2.369c2.979,0.564,8.688,3.32,11.847,1.329c4.444-2.8,5.202-11.033,10.24-14.385
			c2.995-1.992,9.289-4.848,12.945-4.056c2.833,0.614,6.014,4.843,8.146,6.818c4.649,4.305,5.256,5.65,12.143,5.755
			c12.298,0.188,23.13-2.281,34.816-4.555c-0.263-5.203,9.168-9.586,12.708-11.946c5.801-3.866,10.628-10.116,18.144-10.46
			c10.571-0.483,7.955,12.805,15.896,14.693c6.818,1.62,8.856-4.5,14.871-4.471c5.693,0.027,8.526,4.984,8.882,9.987
			c0.346,4.867-5.129,14.462-1.178,18.062c4.176,3.806,11.206-2.355,15.345-3.967c6.404-2.495,14.358-4.339,21.161-2.837
			c5.796,1.279,7.287,3.274,9.789,7.912c2.271,4.21,4.051,4.995,9.101,2.918c8.048-3.31,14.284-8.88,23.46-9.344
			c4.727-0.238,8.467,0.146,12.755,1.688c4.051,1.456,4.004,1.366,8.548-1.449c6.16-3.816,10.809-7.573,17.944-9.464
			c5.375-1.424,7.093,0.855,12.197,1.494c0.815,7.262,3.823,8.825,10.591,5.297c5.585-2.911,9.033-4.889,12.81-9.724
			c4.852-6.211,8.67-11.784,15.995-14.999c6.026-2.645,12.445-1.867,18.469,0.051c8.775,2.795,15.461,1.933,24.221,0.564
			c3.557-0.556,7.377-2.686,10.958-2.728c2.162-0.026,3.608,0.811,6.018,0.249c6.182-1.442,8.278-10.866,14.341-12.169
			c8.582-1.845,5.24,7.868,6.651,12.327c4.735-2.34,9.324-4.675,13.575-8.589c3.452-3.179,5.314-5.765,9.515-7.818
			c10.665-5.212,19.479-15.963,32.092-14.298c4.89,0.646,7.104,3.551,12.352,0.659c4.152-2.288,7.128-6.245,11.033-8.914
			c3.775-2.581,6.806-1.307,11.094-2.442c2.276-0.603,3.733-1.238,6.68-1.543c2.625-0.272,3.193-1.243,5.283-1.919
			c2.893-0.935,5.22-0.232,8.111-2.18c1.779-1.198,2.685-2.799,4.21-4.188c3.401-3.099,6.683-4.425,9.087-8.244
			c2.931-4.658,4.94-9.425,9.189-13.4c5.43-5.08,12.851-7.019,19.769-9.273c4.339-1.413,10.353-3.516,13.831-6.634
			c2.703-2.423,3.232-5.754,4.532-8.742c1.467-3.37,2.139-7.704,4.632-10.906c1.785-2.292,5.321-4.006,6.762-6.506
			c1.083-1.88,0.743-3.69,1.409-5.792c0.401-1.267,2.111-3.172,2.649-4.552c1.414-3.628,1.827-7.522-0.492-10.865
			c-1.748-2.518-4.849-4.202-6.753-6.62c-1.731-2.198-2.507-6.587-5.691-6.965c-0.406,3.664-5.718,13.933-9.098,15.783
			c-2.469,1.35-5.719,0.512-7.896-0.534c-0.977-0.469-1.522-2.022-2.439-2.706c-0.843-0.628-2.347-0.304-3.199-0.915
			c-5.249-3.759-5.184-7.418-12.022-3.906c-4.63,2.377-7.329,5.32-9.515,10.031c-2.468,5.32,0.851,8.666,0.546,14.908
			c-0.313,6.42-5.829,12.036-10.335,16.46c-2.493,2.448-10.752,14.817-15.362,12.319c-4.406-2.387,0.978-3.461,1.996-4.266
			c3.602-2.846,2.934-2.083,2.075-6c-0.266-1.209-0.603-7.073-1.357-7.915c-1.096-1.223-6.442-0.447-7.919-0.359
			c-6.093,0.363-9.119,3.155-14.908,0.553c-2.668-1.199-4.755-2.665-7.724-2.658c-2.056,0.005-4.769,2.449-6.261,1.9
			c-3.032-1.116,1.336-9.072-1.365-12.638c-3.007-3.97-3.535-1.375-7.806-1.378c-3.492-0.002-4.448-2.056-7.197-3.293
			c-3.268-1.471-3.2-0.287-6.2,0.097c-3.499,0.448-1.873,0.544-5.376-0.803c-1.639-0.631-5.206-1.662-6.48-2.772
			c-1.908-1.662-2.04-4.465-3.654-5.605c-2.975-2.102-12.452,0.334-16.178-0.274c-1.378-0.224-1.687-2.098-3.265-2.098
			c-2.09,0-1.266,1.6-2.522,1.82c-2.602,0.455-5.038,0.482-7.765,0.45c-6.062-0.069-9.591,1.552-14.86,3.603
			c-4.038,1.572-10.807,7.174-14.549,3.175c-1.983-2.118-0.602-4.083-1.856-6.374c-0.805-1.47-3.106-2.856-4.229-4.214
			c-4.731,1.992-9.443,3.715-12.44-2.314c-2.445-4.918-2.095-7.282-7.598-9.327c-4.335-1.609-9.561-1.041-14.423-1.008
			c-2.328,0.016-5.7,0.744-7.819-0.41c-1.998-1.088-1.923-3.24-4.525-3.704c0.73-1.415,2.411-2.433,2.3-4.199
			c-0.396-6.31-13.016-12.138-18.43-13.831c-5.564-1.741-10.282,1.017-15.453-1.384c-1.802-1.647-3.602-3.294-5.403-4.942
			c-3.794-4.161-8.249-7.321-13.363-9.477c-11.241-5.747-19.485-0.441-30.878,1.467c-7.935,1.329-11.529-1.855-15.028-8.456
			c-1.092-4.174-3.21-7.67-6.354-10.486c-2.637-3.288-5.737-6.085-9.3-8.391c-2.471-5.154,2.162-11.238,2.89-16.438
			c-6.121-3.054-11.632-2.781-18.381-3.225c-6.302-0.415-8.742-2.222-9.916-8.021c-1.144-5.654,3.894-11.781-3.004-15.586
			c-5.743-3.168-15.311-1.829-21.513-1.812c-9.86,0.028-39.956-2.521-31.388-19.425c4.387-2.577,8.775-5.155,13.163-7.732
			c5.982-1.544,11.964-3.088,17.946-4.632c7.179-0.578,14.33,1.504,21.441,1.52c8.226,0.017,14.863-4.739,23.357-3.635
			c5.253,0.683,10.375,1.93,15.566,2.973c8.771,1.763,13.665,0.794,22.458-0.75c5.818-1.021,12.831-0.895,18.228-3.434
			c5.959-2.803,5.363-4.828,7.862-10.28c1.142-2.491,11.486-12.477,10.437-8.958c4.296-3.989,13.65-8.465,19.909-6.283
			c5.473,1.908,2.948,7.706,2.723,11.842c-0.226,4.144,0.371,8.633-1.266,12.6c-2.752,6.674-9.901,10.83-16.573,12.141
			c-6.08,1.195-9.016,1.144-12.932,6.075c-3.229,4.067-15.21,19.923-11.496,26.708c1.246,2.276,4.965,3.357,5.865,6.037
			c1.816,5.404-4.543,16.953-6.194,21.911c3.976,4.507,18.148,3.73,21.319-1.82c0.474-4.589,2.263-8.674,5.364-12.253
			c1.901-2.454,3.802-4.908,5.702-7.362c1.795-4.379,1.79-8.789-0.015-13.229c0.158-7.029,3.302-12.374,9.431-16.035
			c3.001-0.875,6.002-1.75,9.003-2.625c4.765,0.454,7.615,2.934,8.549,7.44c3.809,3.454,8.378,4.537,13.706,3.248
			c3.829,1.116,7.427,0.911,10.794-0.613c2.699-0.46,3.981-2.351,3.842-5.677c1.916-4.939,5.365-8.354,10.346-10.244
			c5.685-2.843,13.607-3.083,15.16-10.36c-0.678-4.647,1.168-8.27,5.539-10.871c4.565-4.276,9.86-6.188,15.885-5.737
			c1.847,2.173,2.205,4.473,1.073,6.903c-0.814,2.431-0.969,4.924-0.465,7.478c1.498,3.449,7.375,5.166,8.962,8.779
			c2.891,6.578-2.129,15.266-6.41,19.674c-4.962,5.108-11.849,7.78-17.841,11.619c-12.133,7.772-23.013,22.958-21.327,37.734
			c1.117,9.781,4.768,18.494,11.53,25.633c4.844,5.115,10.732,7.657,15.746,12.378c-0.197,3.33-2.554,5.61-4.76,7.771
			c8.216,1.259,15.484,2.007,23.836,0.816c7.616-1.085,17.921-1.466,24.513-5.722c-1.483-1.183-3.308-1.671-5.174-1.354
			c11.314-0.952,18.984-7.891,29.328-11.097c4.792-1.486,9.171-1.799,13.868-3.533c5.89-2.174,12.007-3.172,15.079,3.591
			c2.646,5.826-0.175,7.378,7.703,8.638c5.674,0.906,16.005,2.375,20.784-0.761c3.305-0.131,4.777-2.045,4.419-5.741
			c-1.05-2.355-2.099-4.71-3.149-7.065c-3.458-6.653-6.572-10.087-6.639-17.647c-0.035-4.02,0.316-7.842-0.595-11.837
			c-1.077-4.721-2.743-7.6-7.132-9.894c-4.916-1.701-9.953-2.819-15.112-3.353c-5.155-0.575-10.215-1.63-15.181-3.167
			c-6.235-5.635,0.293-28.661,7.905-20.653c2.688,2.827,1.823,4.837,6.041,6.44c5.499,2.091,12.49,2.086,18.313,3.24
			c-8.004-7.375,7.818-7.87,12.235-6.77c17.688,4.405,7.209,20.354,10.564,31.422c6.834,22.546,27.771,38.641,50.849,40.12
			c6.648,0.426,14.157,0.995,19.246-4.183c2.386-2.428,2.858-6.678,5.844-8.344c6.368-3.555,16.141,4.06,24.007,1.945
			c5.085-1.367,10.212-5.506,12.26-10.264c2.453-5.698-0.446-9.908,0.809-15.789c1.455-6.819,9.069-12.023,14.87-14.717
			c10.289-4.778,21.216-3.283,28.425-13.623c4.989-7.155,4.333-18.135,11.853-22.837c7.29-4.558,20.187-4.821,25.053-12.145
			c2.867-4.314,6.611-14.714,3.015-18.669c-1.902-2.092-4.917-2.236-7.469-3.126c-4.686-1.634-9.326-4.146-12.7-7.944
			c-8.652-9.743,0.771-15.873,3.981-24.902c3.068-8.63-4.638-12.662-11.933-12.519c-8.321,0.162-13.371,2.755-20.529,6.069
			c-6.126,2.835-13.329,1.065-19.785,0.703c-6.213-0.348-12.1,0.452-17.676-2.5c1.133-4.79,6.285-9.609,6.712-14.081
			c0.396-4.134-5.44-7.466-7.735-10.298c-4.333-5.346-4.68-11.399-8.413-16.604c-2.816-3.925-8.07-3.779-12.372-4.16
			c-6.241-0.553-12.595,0.789-18.813,0.032c-12.293-1.496-17.142-9.415-18.958-20.693c-1.699-10.555,1.512-17.721,11.006-20.85
			c6.023-1.984,12.105-2.372,16.047-8.027c9.031-12.958-3.859-24.538-3.75-37.225c0.073-8.61,9.359-19.11,16.632-22.652
			c1.764-0.614,3.527-1.229,5.29-1.844c1.621-0.221,2.741,0.389,3.361,1.831c8.836-0.438,13.552-8.784,21.977-10.277
			c5.308-0.94,13.039,0.765,17.518,2.867c-5.218,6.994-13.137,12.992-17.621,20.312c-2.587,4.223-1.269,8.37-3.865,12.448
			c-4.938,7.755-12.269,10.189-0.645,16.855c3.223,1.849,9.989,5.924,13.557,5.194c5.321,4.79,10.864,7.039,18.107,6.324
			c5.382-0.531,15.209-2.878,18.21-8.27c3.598-6.462-2.165-13.46,0.237-19.836c2.536-6.731,11.485-7.825,17.529-8.951
			c-1.078,0.253,7.66-4.277,8.024-4.54c5.295-3.809,1.519-4.406,4.906-7.897c2.363-2.435,11.599-1.397,14.4,0.542
			c5.314,3.678-1.71,10.803-3.746,15.146c-3.32,7.083-4.307,18.79,6.286,17.038c6.829-1.129,12.317-7.121,14.387-13.268
			c5.707,0.407,12.541,0.752,16.106,6.052c3.129,4.652,2.962,13.142-0.169,17.72c-3.965,5.799-15.874,8.977-22.555,10.071
			c-12.75,2.087-33.911-2.694-35.05,15.975c-0.841,13.783,10.346,22.745,23.261,21.045c2.493-0.528,4.986-1.057,7.479-1.586
			c3.588-1.027,5.993-0.057,7.216,2.909c2.39,3.229,4.395,6.697,6.015,10.403c2.293,3.63,4.588,7.258,6.882,10.888
			c4.222,6.581,10.454,18.91,19.66,20.279c5.225,0.777,11.732-2.141,16.151-4.385c2.537-1.287,5.516-2.137,6.284-5.189
			c0.555-2.208-1.038-3.877-0.023-6.228c1.095-2.534,3.655-3.009,5.87-4.142c4.439-2.269,8.365-5.144,12.424-8.06
			c8.593-6.173,14.718-11.721,14.192-22.799c-0.48-10.119-0.131-18.887,1.796-28.866c1.647-8.528-3.935-9.46-7.084-16.328
			c-4.309-9.395,7.294-15.094,10.238-22.547c2.489-6.297-0.358-9.713-4.633-14.334c-3.043-3.289-12.47-11.835-12.313-16.819
			c0.184-5.825,11.244-8.039,12.321-14.29c1.24-7.202-7.198-6.752-8.905-12.244c1.242-3.124,5.14-3.322,6.488-5.938
			c1.555-3.019-0.265-7.417-0.708-10.527c-1.315-9.229-2.218-21.789-13.405-24.549c-7.614-1.879-9.815,4.187-14.556,9.214
			c-3.576,3.793-6.911,8.197-12.887,7.288c-4.577-0.697-8.528-4.673-10.776-8.357c-2.635-4.32-2.075-13.719-6.086-16.452
			c-4.286-2.92-15.661-0.067-17.397,4.155c-2.276,5.536-1.789,9.777-7.095,13.953c-2.897,2.281-8.402,3.256-10.521,6.517
			c-2.625,4.038,0.058,6.077-1.15,10.28c-0.863,3.004-3.702,5.107-5.937,7.019c-4.72,4.037-4.728,3.367-9.909,1.173
			c-8.874-3.757-18.657-9.28-26.56-15.02c-2.071-1.505-10.23-7.447-8.016-11.783c1.418-2.778,4.432-2.366,6.874-3.483
			c17.997-8.23,43.596-6.31,50.021-29.654c1.852-6.731-0.385-16.459,4.268-21.889c4.3-5.018,12.198-6.952,17.276-11.067
			c17.82-14.439,5.12-32.039-7.495-45.114c1.01-3.247,6.308-5.832,8.435-8.281c2.041-2.348,3.71-5.254,5.28-7.926
			c3.454-5.882,7.154-12.796,8.79-19.431c2.722-11.039-4.344-20.563,8.238-26.724c9.643-4.72,23.365-8.202,20.758-21.684
			c-0.866-4.477-2.974-6.034,1.213-9.447c3.157-2.573,6.415-3.134,10.348-3.103c13.723,0.108,15.812,10.25,15.321,21.747
			c-0.154,3.619,0.453,7.229-1.786,10.328c-3.168,4.384-12.071,5.665-16.739,8.389c-5.17,3.017-8.635,5.274-7.3,11.279
			c0.677,3.045,1.754,4.866,0.778,8.045c-0.463,1.507-2.011,2.415-2.501,4.115c-2.192,7.605,3.746,13.481,9.938,16.457
			c3.725,1.79,6.934,4.803,11.184,4.115c8.821-1.429,7.243-14.668,16.6-16.651c7.814-1.656,22.021,1.917,20.14,12.638
			c-0.986,5.616-8.925,7.36-12.064,11.766c-1.391,1.953-2.332,4.462-3.353,6.63c-3.417,7.263-9.347,8.944-14.6,14.416
			c-5.386,5.61-3.923,17.698-1.234,24.467c1.274,3.207,4.193,8.726,6.948,10.749c3.849,2.825,7.914,1.269,12.378,1.927
			c10.835,1.597,26.505,10.06,29.164-7.217c0.643-4.171-0.157-9.311-0.271-13.56c-0.175-6.501-0.854-8.126,5.142-10.28
			c4.108-1.477,7.985-1.777,11.798-4.225c3.087-1.982,5.675-4.606,8.486-6.916c3.043-2.5,7.77-4.252,10.273-7.036
			c6.636-7.384-1.943-25.298-2.867-32.957C1861.472,1132.182,1861.586,1130.365,1858.182,1127.528z"/>
	</g>
	<path style="fill:#878C91;" d="M1527.708,1131.839c-4.935-3.286-6.021-8.223-3.257-14.81c0.222-3.509,0.444-7.017,0.666-10.525
		c-2.553-3.168-5.858-4.679-9.913-4.533c-1.822-5.85-1.131-11.567,2.073-17.151c0.544-3.488,1.089-6.976,1.633-10.464
		c-2.75-5.224-7.057-8.324-12.923-9.304c-2.348-1.611-4.57-3.376-6.666-5.295c-5.548-2.961-9.217-3.148-13.562,2.073
		c-3.351,4.026-2.415,11.275-7.297,13.933c-2.727-1.066-4.969-2.785-6.725-5.159c-0.886-2.437-0.575-4.744,0.934-6.92
		c0.748-6.995-0.869-8.33-6.655-13.33c-2.495-1.778-4.788-3.785-6.879-6.022c-1.58-2.988-3.051-6.029-4.411-9.123
		c-1.991-1.225-3.914-2.548-5.771-3.969c-2.209-3.865-3.952-7.928-5.228-12.191c4.737-6.828,20.435-4.67,26.085-0.885
		c2.811,2.01,5.084,4.536,6.817,7.579c3.095,1.471,6.182,1.6,9.261,0.385c11.097-1.765,14.085-8.815,8.034-18.657
		c-5.432-8.834-7.075-6.687,1.621-16.204c5.533-3.994,8.786-9.15,9.757-15.465c2.516-4.135,1.642-7.643-2.624-10.524
		c-7.302-11.216,0.963-22.911-4.244-35.409c-5.661-13.589-17.668-13.951-27.919-21.111c-0.159-0.163-0.28-0.347-0.436-0.511
		l2.745-1.226c1.501-2.096-1.12-5.769,0.67-7.56c1.275-1.277,4.991-0.186,6.718-0.483c2.454-0.423,3.085-1.872,6.325-1.926
		c5.97-0.099,7.539,2.431,11.739,5.703c2.946,2.296,10.709,9.54,14.051,8.879c3.558-0.703,6.477-6.168,9.44-8.137
		c3.437-2.283,8.999-4.925,13.042-5.94c3.244-0.814,7.234-1.109,10.474-0.047c4.742,1.553,3.485,3.41,4.323,7.516
		c5.694,0.886,11.223,4.537,16.72,0.853c3.457-2.317,6.539-14.765,0.212-12.836c1.812-2.11,8.843-6.254,11.631-6.385
		c4.814-0.225,5.381,4.399,10.233,4.357c3.558-0.031,8.761-2.542,10.844-5.71c2.372-3.609,0.985-6.832,4.075-10.328
		c1.838-2.079,4.854-6.243,7.662-6.836c6.488-1.368,4.734,5.977,8.699,8.007c6.774,3.468,18.571-13.506,5.967-14.49
		c0.488-2.428,3.553-3.242,5.967-3.764c2.778-0.6,5.414-0.775,8.223-1.493c5.739-1.468,9.065,1.099,10.379-6.63
		c0.9-5.29-2.613-8.066-4.764-12.231c-3.47-6.719,0.102-6.464,5.13-4.734c2.53,0.871,5.216,1.1,7.307,2.981
		c1.695,1.525,2.368,4.362,4.068,5.916c3.458,3.163,8.715,2.722,8.831,8.076c0.154,7.182-7.499,13.902-10.064,20.044
		c2.426,3.537,7.331,2.496,10.826,4.622c3.144,1.912,5.191,7.223,8.98,5.819c0.949-0.352,2.097-2.608,2.925-3.243
		c1.84-1.411,3.929-1.922,5.762-3.427c5.77-4.735,7.757-10.507,2.904-16.774c-2.572-3.321-7.227-5.14-8.659-9.562
		c-1.953-6.029,1.581-7.299,5.762-10.28c2.25-1.604,3.859-3.79,6.165-5.312c1.928-1.272,4.455-1.356,6.279-2.419
		c2.737-1.597,7.047-6.768,7.912-9.878c-18.082-1.096-5.721-24.61-6.158-33.172c-3.459-0.493-7.669-0.494-9.731-4.221
		c-2.281-4.122,1.82-10.701-0.67-14.648c-1.896-3.007-6.639-1.754-9.405-4.434c-2.836-2.748-5.222-5.164-6.993-8.544
		c-4.155-7.936,5.406-17.298-4.821-22.085c-4.281-2.004-8.052-5.327-12.418-7.062c-2.618-1.04-4.427-1.25-7.194-0.477
		c-3.338,0.931-3.182,1.273-6.18,0.595c-3.481-0.788-9.032-2.271-8.401,4.152c0.343,3.49,4.293,7.226,2.374,11.402
		c-3.2,6.968-12.827-6.571-17.064-7.919c-3.55-1.13-6.748-2.703-9.324-0.619c-2.532,2.048-1.353,5.086-5.706,3.454
		c-3.402-1.275-3.141-4.194-4.933-6.91c-2.11-3.199-5.589-4.364-8.032-7.162c-1.801-2.062-1.83-4.989-4.353-5.876
		c-5.208-1.83-9.4,3.129-7.442-5.028c2.639-10.99,8.096-12.365,17.601-9.645c5.29,1.514,8.185-1.357,10.859-5.66
		c1.346-2.167,3.13-4.938,2.292-7.342c-1.401-4.022-5.313-2.074-8.082-2.916c-2.998-0.911-3.38-0.459-2.685-4.045
		c0.621-3.201,3.329-6.651,4.155-10.171c4.536-1.06,7.915,0.634,11.986-2.181c3.853-2.665,8.239-8.447,6.037-13.435
		c-1.53-3.465-5.274-3.761-8.193-5.221c-4.965-2.484-3.065-4.974-4.419-9.878c-1.627-5.89-4.815-5.862-6.815-0.5
		c-1.337,3.585-2.578,9.441-6.665,11.022c-4.507,1.744-4.988-3.32-8.801-6.399c-3.563-2.878-4.151-2.52-7.753-0.622
		c-1.338-4.448-0.464-10.515-0.401-15.067c0.103-7.557,0.397-6.916-6.149-7.265c-6.38-0.34-8.665-5.227-12.581-9.63
		c-3.736-4.201-9.15-8.694-14.206-11.186c-4.972-2.452-9.086-2.439-13.467,1.334c-4.882,4.205-0.813,6.752-2.846,11.304
		c-1.869,4.185-5.806,0.237-9.246,1.996c-4.637,2.372-1.202,9.608-5.149,12.095c-3.748,2.361-9.442-4.156-11.741-6.319
		c-4.534-4.268-15.784-16.966-23.464-13.814c-5.661,2.324-6.043,13.783-7.592,18.591c-1.188,3.686-1.454,6.602-5.044,8.523
		c-6.76,3.617-11.234-3.355-17.18-5.709c-3.998-1.584-12.199-2.818-15.568,0.697c-5.01,5.227,0.481,10.939-0.058,16.362
		c-8.082,3.323-3.756,16.219-11.642,18.704c-1.044-3.751-3.196-7.049-4.207-10.68c-1.189-4.274,0.704-5.147,1.234-8.116
		c1.206-6.763-2.791-5.287-5.298-10.214c-2.557-5.027-0.483-14.278,4.108-17.69c2.937-2.183,4.805,0.107,5.909-4.533
		c0.516-2.168-0.043-5.396-1.075-7.331c-1.794-3.364-1.774-2.798-5.197-2.531c-1.137,1.179-2.487,1.592-4.049,1.241
		c-1.81-1.062-3.764-1.682-5.862-1.86c-6.907-0.405-4.911,7.713-9.057,12.041c-2.054,2.144-5.423,4.521-7.868,6.293
		c-1.219,0.162-2.436,0.34-3.65,0.535c-1.078,1.827-1.762,3.803-2.051,5.927c-1.644,7.614,0.421,9.92,7.454,10.639
		c0.25,1.636,1.258,3.309,1.478,4.82c0.316,2.177-0.833,3.427-0.727,5.27c0.148,2.575,2.725,3.997,1.596,7.164
		c-1.925,5.404-4.809,1.612-8.167,1.311c-2.189-0.198-8.68,2.301-9.97,4.173c-2.09,3.036,1.036,6.064,1.584,8.849
		c0.515,2.621-0.443,7.865-1.981,10.132c-2.03,2.993-6.518,2.201-8.756,5.559c-2.635,3.954-4.806,13.914-1.599,18.005
		c2.349,2.997,4.982,3.342,6.144,7.433c1.156,4.076,0.513,6.266,4.257,9.378c3.692,3.069,8.966,2.841,12.484,5.82
		c3.658,3.097,6.056,9.518,8.2,13.723c1.93,3.785,2.856,7.339,7.027,9.059c1.796,0.741,4.951,0.124,6.84,0.553
		c1.59,0.361,2.964,1.431,4.62,1.713c3.046,0.519,7.103-0.004,10.233-0.099c0.005,0,0.01,0.001,0.016,0.001
		c0.045,3.337,0.325,6.263,1.8,9.504c2.508,5.506,5.603,6.117,10.324,9.515c-0.542,2.982-4.863,5.631-5.777,8.925
		c-1.54,5.549,2.973,8.42,1.699,14.055c-0.528,2.333-2.01,2.25-1.512,5.261c0.568,3.433,3.512,4.549,5.338,6.791
		c3.234,3.971,3.92,7.621,8.695,10.772c3.911,2.581,8.387,3.953,8.325,9.239c-0.057,4.895-3.422,8.659-2.259,14.402
		c0.411,2.027,3.243,5.137,2.138,7.099c-0.643,1.142-3.341,1.692-4.654,2.625c-1.228,0.872-3.261,2.9-4.107,4.122
		c-1.846,2.666-0.436,4.143-1.34,6.843c-1.436,4.288-7.75,5.316-6.451,11.259c0.723,3.306,2.345,2.389,3.881,4.981
		c1.508,2.544,0.187,6.148-0.657,8.356c-0.373,0.976-0.762,1.779-1.13,2.517c-10.342,2.948-18.926,9.539-29.264,12.848
		c-7.6,2.433-17.089,0.369-24.01,4.681c-6.531,4.068-7.17,12.942-12.667,17.576c-6.148,5.184-14.811-1.284-20.151,4.387
		c-4.921,5.225,1.17,12.379-0.944,18.089c-2.498,6.745-4.955,2.659-8.813,4.1c-9.318,3.48-3.283,13.717,2.028,17.693
		c5.823,1.901,11.801,2.894,17.933,2.981c6.818,1.744,9.487,5.917,8.007,12.516c-3.584,3.094-7.289,3.511-11.115,1.25
		c-3.657-1.251-7.386-2.242-11.185-2.97c-1.941,1.287-2.774,3.06-2.5,5.318c-3.354-1.306-6.144-3.466-8.372-6.479
		c-2.645-3.312-5.796-4.723-9.455-4.233c-7.31-2.961-9.668-6.738-10.351-15.474c15.835-7.687-5.11-20.618-14.479-22.157
		c-0.932-6.063-1.713-10.403-7.108-13.843c-7.302-4.655-15.357-3.674-23.677-2.45c-1.352,3.804-1.268,7.623,0.252,11.457
		c-10.16,3.154-19.996,1.484-29.509-5.011c-11.703-1.468-18.149-6.943-19.338-16.424c-2.967-5.715-1.853-11.059,3.343-16.032
		c1.866-3.221,4.55-4.922,8.053-5.1c4.79-11.933-18.355-12.123-23.416-16.766c-2.654-2.435-2.114-4.739-2.748-8.03
		c-1.414-7.33-4.855-13.477-10.325-18.44c-4.713-7.696-11.649-12.578-20.809-14.647c-4.798,4.609-10.195,8.329-16.191,11.161
		c-5.149-4.319-14.66-10.179-17.789-15.969c-1.661-3.073-0.332-4.895-1.586-8.554c-1.274-3.721-6.233-5.579-9.698-6.118
		c-7.067-1.099-9.471,1.706-13.345,6.748c-3.038-0.293-5.912-1.175-8.621-2.646c-5.581,0.153-9.952-2.104-13.113-6.77
		c-1.093-4.254-2.128-8.521-3.104-12.803c-4.264-2.916-8.92-4.06-13.969-3.432c-5.522-1.188-10.49,0.155-14.902,4.03
		c-1.753,4.421-4.893,5.821-9.42,4.199c-4.435-2.236-9.036-4.044-13.803-5.426c-5.576-0.38-9.8,1.825-12.672,6.615
		c2.097,7.859,6.456,14.312,13.078,19.36c4.274,6.981,9.19,13.47,14.749,19.467c5.412,2.5,7.866,6.556,7.362,12.165
		c-1.449,2.772-2.953,5.515-4.512,8.226c4.594,6.8,16.625,3.231,16.105,14.918c-2.951,5.247-5.965,10.458-9.042,15.633
		c0.782,3.25,0.29,6.235-1.476,8.956c-8.293-3.332-17.624-9.485-19.795-19.09c-1.583-7.002,0.995-15.898-6.674-19.463
		c-1.767-0.848-3.626-1.288-5.579-1.32c-3.531,0.143-6.136-1.655-7.812-5.39c-6.657-4.557-9.356-0.592-15.607,2.783
		c-11.691-11.802-7.31-27.18-6.486-42.344c-2.997,0.165-5.955-0.123-8.874-0.864c-1.742-2.375-3.461-4.766-5.157-7.173
		c-5.57-4.438-4.926,1.045-11.469,1.054c-5.197-5.936-6.535-12.925-4.015-20.967c2.269-7.204,5.166-14.136,8.692-20.796
		c-5.731-2.262-22.882-4.347-26.928,2.198c-3.387,5.478,2.123,13.286,3.004,18.339c1.705,9.776-7.319,7.399-13.59,8.244
		c-11.072,1.492-9.547,9.828-11.715,18.733c-3.318,0.995-6.712,1.59-10.182,1.786c-5.81,3.746-6.904,8.838-3.284,15.277
		c4.854,7.498,10.274,14.563,16.26,21.195c5.186,5.376,7.039,11.582,5.562,18.617c-4.483,3.055-8.438,2.133-11.866-2.765
		c-2.749-2.778-5.826-3.771-9.232-2.977c-6.483,0.992-4.47,3.912-5.727,9.337c-4.071,0.318-7.081-1.674-9.031-5.975
		c-4.457-3.898-5.866-8.501-4.228-13.81c-1.86-9.663-24.502-6.935-31.276-5.345c4.719-2.442-7.714-7.969-8.539-8.375
		c-4.638-1.739-8.633-4.463-11.988-8.17c0.042-1.85,0.083-3.7,0.125-5.55c-0.781-0.8-1.563-1.598-2.344-2.398
		c-5.411,1.817-10.908,2.366-16.492,1.649c-6.148,1.057-10.719-1.523-13.714-7.738c-2.22-2.748-4.44-5.496-6.659-8.244
		c-7.501-4.53-16.704-0.752-23.845,2.375c-2.84,0.52-5.062,1.917-6.667,4.188c-2.297,1.303-2.791,3.159-1.483,5.569
		c-0.246,3.521,1.632,7.579,1.045,11.495c-0.969,6.468-1.898,6.72-8.717,9.672c-1.573,0.681-3.51,1.336-5.625,2.004
		c0.687-0.878,1.291-1.862,1.651-3.197c0.975-3.608,0.408-10.346-1.83-13.348c-2.044-2.741-4.561-3.084-6.469-6.799
		c-2.766-5.383,0.096-14.857,4.323-19.827c2.98-3.504,5.958-0.584,10.328,1.062c4.058,1.529,7.735,3.683,12.392,3.127
		c10.026-1.199,12.399-11.694,17.384-18.615c2.659-3.691,4.91-4.664,1.133-8.22c-2.844-2.679-6.053-3.347-3.203-8.263
		c3.947-6.812,9.089-10.584,15.494-14.328c4.348-2.542,5.287-5.967,3.966-11.329c-1.513-6.144-4.422-5.839-9.16-7.124
		c-4.69-1.272-7.874-2.144-13.316-2.114c-2.576,0.014-5.872,0.648-8.336,0.107c-2.239-0.492-3.092-2.422-5.715-2.516
		c-0.439-3.58-2.926-6.525-2.563-9.995c0.295-2.82,3.63-6.772,5.045-9.2c1.085-1.861,1.937-4.325,3.279-5.996
		c0.985-1.228,3.046-1.702,3.809-3.149c2.964-5.614-1.646-6.325-5.814-6.278c-6.37,0.07-12.904,1.308-18.397,4.067
		c-3.956,1.988-6.43,4.038-8.395,8.211c-1.309,2.779-0.966,6.428-3.705,8.846c0.322,0.755,0.457,1.332,0.881,1.847
		c-0.231-0.047-0.452-0.113-0.742-0.047c-0.452,4.025-4.237,7.575-8.277,7.571c-1.392-0.001-3.831-3.988-6.319-1.38
		c-1.337,1.402,0.04,4.152-0.198,5.855c-0.786,5.623-4.695,7.766-9.936,5.762c-2.186-0.836-3.632-4.385-6.737-3.904
		c-2.293,0.356-2.203,2.475-3.931,3.358c-8.822,4.508-16.095-9.467-23.681-11.442c-1.086,0.051-2.171,0.107-3.256,0.166
		c-1.115-0.142-1.915-0.712-2.402-1.713c-2.103-0.443-4.604-0.96-6.824-0.531c-1.202,0.233-2.459,0.928-3.251,1.776
		c-3.465-0.434-7.971,2.169-10.492,3.913c-6.025,4.169-7.133,6.297-2.116,11.361c4.362,4.403,4.457,6.058,2.061,11.324
		c-2.282,5.014-2.24,9.405,1.015,14.443c4.135,6.402,0.744,4.884-3.186,10.181c-2.326,3.135-3.414,6.94-7.054,9.358
		c-7.302,4.851-15.691,3.179-21.124,11.795c-5.726,9.08,5.48,14.276,8.728,22.12c1.757,4.244,2.64,6.739,6.176,10.283
		c2.713,2.719,5.91,5.934,9.672,6.788c2.607,0.592,5.716-0.506,8.384-0.154c2.822,0.373,3.536,1.654,6.018,2.219
		c2.819,0.641,5.451,0.689,8.329,1.479c3.203,0.878,4.214,0.73,6.737-1.036c4.053-2.837,5.749-6.664,11.887-4.77
		c5.135,1.584,4.284,7.248,7.208,10.386c-4.667,4.35,3.601,11.823,6.586,14.912c4.163,4.31,8.662,3.573,13.525,3.343
		c0,0.006-0.002,0.012-0.002,0.018c-0.038,3.269,1.174,3.804-1.145,6.451c-3.069,0.93-5.872,2.354-8.408,4.27
		c-1.835,0.833-3.301,2.081-4.397,3.744c-2.446,2.837-2.351,7.329-5.156,9.518c-0.877,0.685-3.316,0.526-3.877,1.189
		c-0.547,0.646-0.652,1.807-0.436,2.882c-0.161,0.13-0.359,0.233-0.501,0.377c-0.971,0.974-3.644,5.277-3.709,6.685
		c-0.198,4.286,3.485,4.802,0.81,8.9c-1.936,2.966-6.083,5.063-8.369,8.164c-1.318,1.788-0.933,2.201-2.461,3.672
		c-0.465,0.449-2.059,0.9-2.676,1.391c-2.847,2.268-3.44,5.526-3.599,8.842c-0.162,3.395,0.025,6.88,0.048,10.287
		c0.034,5.08-1.266,7.638-2.164,12.344c-0.484,2.534,1.94,8.6-1.852,9.567c-1.3,0.331-6.415-3.194-8.274-3.434
		c-5.382-0.695-5.154,0.28-7.768,4.214c-1.713,2.577-4.423,4.117-6.231,6.572c-3.516,4.772-3.813,13.219,0.008,18.159
		c2.034,2.631,5.738,3.539,7.871,5.967c2.281,2.597,3.604,7.179,4.056,10.346c0.508,3.558-1.065,6.044-1.647,8.735
		c-0.698,3.221-0.415,6.467-0.451,9.823c-0.091,8.503,5.251,7.996,11.309,12.352c5.336,3.837,10.978,5.166,17.488,6.278
		c3.554,0.608,5.62-0.563,8.735,1.34c4.57,2.792,3.965,5.147,5.609,8.9c1.472,3.363,3.782,4.822,0.198,8.325
		c-2.867,2.803-6.782,1.934-10.427,1.904c-3.38-0.028-6.588-0.136-9.823,0.45c-2.104,0.382-1.153,2.283-4.122,1.238
		c-1.003-0.353-2.653-2.884-3.079-3.639c-1.467-2.594-1.107-6.216-3.968-7.919c-1.648-0.98-3.173,0.083-4.783-0.36
		c-1.197-0.33-2.597-1.4-3.487-1.657c-8.763-2.531-10.385,3.771-13.952,9.823c-4.289,7.278-14.107,8.336-19.383,1.053
		c-2.35-3.243-4.29-7.613-5.864-11.326c-0.725-1.711-0.969-4.166-1.899-5.722c-1.018-1.702-3.172-2.408-4.32-4.524
		c-1.481-2.731,0.013-10.305-1.757-12.082c-1.987-1.995-9.646,0.399-12.14-0.205c-3.309-0.801-5.587-4.098-9.771-1.754
		c-3.161,1.771-3.79,5.428-8.23,5.55c-5.437-8.214,0.445-19.818,3.654-28.076c2.513-6.467,9.827-17.317,5.807-24.796
		c-2.388-4.441-10.349-7.338-14.842-6.403c-1.683,0.35-6.081,4.669-7.372,0.687c-1.027-3.17,3.823-4.454,1.738-8.898
		c-1.921,0.298-5.775,1.078-7.407,2.219c-0.986,0.689-1.96,2.79-2.907,3.716c-2.072,2.026-4.913,2.773-6.782,5.18
		c-1.417,1.824-3.415,5.229-4.267,7.377c-1.008,2.54-0.184,6.309-2.193,8.15c8.823-1.903,4.619,13.798,3.551,17.221
		c-1.096,3.513-1.925,7.245-3.535,10.463c-0.941,1.881-2.17,3.257-2.997,5.192c-0.759,1.777,0.91,3.204-1.559,4.624
		c-0.067,0.816,0.216,1.502,0.849,2.057c-2.312,2.622-6.528,0.96-9.577,2.947c-2.891,1.883-5.104,4.724-8.178,6.777
		c-4.783,3.193-11.926,7.281-14.904,12.253c-1.36,2.27-2.85,7.886-1.19,10.533c2.79,4.448,8.098,0.795,11.617,0.271
		c10.567-1.573-2.253,11.52-4.255,16.042c-2.349,5.309-3.43,13.711,2.508,17.024c2.926,1.632,7.683,0.62,5.909,5.158
		c-0.366,0.935-1.792,1.114-2.252,1.944c-1.254,2.26-1.396,2.875-1.514,5.688c-0.127,3.041,0.104,5.879-0.43,8.814
		c-0.38,2.086-2.351,1.165-1.237,4.122c0.232,0.617,1.796,1.548,2.153,1.951c2.961,3.345,4.313,4.262,5.759,8.841
		c1.045,3.311,0.229,6.021,5.018,6.043c3.327,0.016,5.985-4.545,9.439-4.231c2.44,0.222,5.3,3.918,6.63,5.806
		c1.584,2.248,2.887,7.059,5.509,8.428c3.538,1.848,10.079,0.169,13.472-0.682c6.125-1.538,13.084,0.184,17.031,5.621
		c1.309,1.802,2.599,5.624,2.61,7.772c0.026,4.78-1.984,3.92-5.006,6.405c-2.364,1.943-3.43,2.566-3.414,5.94
		c0.019,4.042,1.733,3.898,3.753,6.63c1.914,2.588,1.813,4.832,4.587,7.307c4.163,3.716,8.917,2.536,14.391,2.519
		c4.561-0.014,10.047-0.976,14.446,0.414c4.966,1.569,7.396,3.658,12.862,3.752c3.453,0.059,8.33-1.529,9.87,1.863
		c0.726,1.599,0.407,11.008-0.047,12.59c-1.254,4.366-4.466,3.059-7.824,4.415c-3.149,1.27-9.044,6.586-12.95,6.026
		c-3.586-0.514-4.11-6.931-6.08-9.353c-3.732-4.587-5.271-2.737-10.353-1.631c-6.146,1.338-11.938,1.522-18.027,4.042
		c-1.17,0.485-3.566,2.061-4.628,2.211c-3.147,0.446-2.417-0.782-4.43-1.237c-4.85-1.096-25.329,5.728-14.237,10.287
		c-0.047,2.772-2.128,4.929-3.621,7.013c-2.174,3.035-2.038,3.54-6.886,2.392c-8.698-2.06-13.851-9.356-23.753-7.897
		c-2.948,0.434-5.671,1.489-7.289,4.1c-2.888,4.658,0.41,4.507,2.763,7.483c5.165,6.534,5.278,14.505,14.196,17.77
		c-1.314,4.643-3.821,11.889-10.094,12.188c-7.408,0.354-11.311-10.278-16.507-13.356c-8.307-4.922-20.914,2.836-24.317,11.005
		c-3.896,9.353,7.147,5.612,10.552,9.669c5.223,6.222-7.988,12.71-12.572,15.161c-4.323,2.31-9.305,0.742-12.795,4.385
		c-4.59,4.79-0.488,7.563,1.588,12.33c1.95,4.477,5.059,9.234,6.217,13.959c0.876,3.575,2.459,13.017-1.446,14.597
		c-3.235,1.309-5.315-0.586-8.926,1.757c-2.625,1.703-5.388,4.033-4.549,7.421c1.616,6.519,10.494,3.015,5.245,11.144
		c-3.163,4.898-9.724,9.407-3.474,14.501c6.143,5.009,16.016,5.031,22.442,10.287c3.31,2.708,1.866,3.268,3.459,6.224
		c0.812,1.505,0.956,2.556,2.494,3.646c6.984,4.948,24.368-2.535,27.007-9.706c3.836,1.114,2.84,5.664,5.952,7.648
		c2.097,1.337,5.405,0.152,7.813,0.835c2.143,0.608,4.483,2.18,6.213,3.599c5.047,4.137,2.112,11.318,8.445,12.689
		c4.443,0.962,9.173-2.958,13.158-3.95c3.162-0.788,6.243,0.263,9.339-0.485c4.691-1.134,2.067-3.391,4.338-5.688
		c1.671-1.69,4.507-2.444,6.764-2.615c6.248-0.474,12.321,4.031,18.611,4.282c5.76,0.23,12.044,1.288,16.456-2.839
		c3.153-2.948,7.052-9.349,8.541-13.29c1.792-4.741-1.426-6.016-1.131-10.276c3.557-2.132,7.963-4.599,12.14-4.572
		c4.526,0.029,7.62,3.078,11.492,4.028c14.862,3.644,19.81-23.277,7.19-29.065c-1.314-6.696,15.212-11.921,16.167-19.828
		c0.718-5.937-3.25-4.298-6.257-8.38c-2.878-3.906-0.269-7.358-1.94-11.195c-0.938-2.154-4.03-3.027-5.627-5.257
		c-2.414-3.372-1.752-6.054-5.651-8.309c-1.144-0.662-3.602-1.926-4.874-2.253c-2.923-0.752-7.692,1.9-9.786-1.348
		c2.898-2.531,0.352-5.682-0.216-8.68c-0.846-4.463-1.543-8.966-2.369-13.422c-1.497-8.077,4.26-18.885,14.004-17.415
		c0.144,2.211,0.707,6.328,2.687,7.747c1.872,1.343,4.06-0.607,5.917,0.157c2.82,1.161,3.773,8.19,5.44,11.005
		c0.753,1.272,1.896,2.071,2.629,3.452c1.436,2.709,1.516,6.153,3.968,8.468c8.48,8.007,11.864-7.542,18.401-6.235
		c1.521,4.539-0.887,9.707,0.633,14.316c2.814-1.446,5.005-4.604,7.912-6.323c1.612-0.953,4.413-1.245,5.656-2.207
		c1.491-1.156,4.126-6.612,4.375-7.927c0.94-4.962-4.505-6.216-3.746-10.01c2.831-0.832,6.727,0.933,9.552,1.747
		c3.452,0.993,6.133,1.035,8.483,4.115c3.152,4.13,2.469,9.6,2.383,14.436c-0.033,1.41-0.073,2.819-0.121,4.228
		c0.171,1.157,0.794,1.963,1.867,2.416c-0.166,2.773-2.639,3.647-3.507,6.165c-1.33,3.855,0.175,5.749,2.206,7.518
		c-0.202,0.129-0.416,0.24-0.614,0.374c-5.746,3.883-8.397,8.378-12.063,13.66c-2.48,3.575-8.519,9.13-8.187,13.865
		c0.301,4.269,6.268,5.575,7.795,9.383c3.489,8.701-10.222,4.319-13.017,8.495c-3.267,4.88-0.351,8.04,0.592,12.5
		c1.282,6.071-1.095,12.969-1.516,19.047c-0.35,5.056-0.765,10.217-0.334,15.284c7.332,1.052,15.545-6.02,22.546-3.765
		c0.314,3.259,0.229,6.956,2.086,9.834c2.153,3.336,5.544,4.016,8.154,6.853c7.396,8.042-3.909,11.308-8.106,16.222
		c-2.998,3.509-8.61,5.607-3.006,10.328c4.664,3.929,11.231,1.182,17.112,2.222c1.035,3.005-3.621,5.388-0.667,7.91
		c2.359,2.014,13.691-3.035,15.548-4.491c2.17-1.7,3.92-4.97,6.7-5.884c4.183-1.374,11.471,2.164,14.992,3.877
		c5.361,2.608,9.744,6.904,14.367,10.546c2.146,1.691,5.783,3.499,6.732,6.24c-3.271,4.956-16.54,8.126-16,14.43
		c0.333,3.888,7.328,5.109,9.885,6.185c3.434,1.445,4.494,3.465,7.293,5.543c3.219-1.651,6.895-5.384,10.72-4.134
		c4.792,1.566,5.04,9.94,5.07,13.694c0.024,2.923,2.087,12.499,0.71,14.072c2.425,3.989,4.286,7.104,8.788,8.407
		c7.405,2.142,14.153-5.708,21.273-7.01c4.172,4.202,1.435,10.957,2.038,16.189c7.341,4.147,19.87-3.368,24.804-7.73
		c10.071-8.901,11.087-22.325,2.112-32.48c-5.055,1.825-7.827,4.949-12.173,8.04c-4.103-0.715-5.339-8.001-8.42-10.332
		c-2.848-2.153-8.677-3.306-12.195-3.851c-3.854-0.597-4.029,0.389-6.569-3.548c-2.511-3.893-0.541-9.856-3.664-13.59
		c2.8-0.878,12.275-6.683,14.604-5.389c3.234,1.798,0.451,3.197,3.515,5.361c6.108,4.313,19.995-0.733,15.252-9.02
		c-1.981-3.461-3.268-4.343,0.279-7.119c2.909-2.275,7.797-2.019,11.308-1.61c4.8,0.558,8.163,1.261,12.001-2.64
		c3.852-3.914,5.322-11.311,3.958-16.438c-2.855-10.732-13.843-15.753-23.417-18.818c-1.764-0.565-2.786-1.461-4.693-1.464
		c-3.9-0.007-8.094,5.651-12.909,3.874c-5.497-2.03-5.924-11.612-7.886-16.49c-2.867-7.133-9.397-3.383-15.738-1.921
		c3.143-8.241-6.706-19.868-15.304-15.538c2.684-3.566,4.961-7.29,6.763-11.389c6.651,1.919,13.689,2.956,20.316-0.3
		c-0.211-7.821-13.441-9.148-10.487-17.936c5.932-1.394,14.73,2.39,20.096-0.515c4.919-2.664,3.27-7.665,10.937-7.75
		c6.541-0.074,10.063,3.227,13.313,8.299c4.872,7.602,10.584,14.549,17.294,20.664c4.752-2.559,8.896-8.885,15.091-6.793
		c7.211,2.435,7.082,10.935,15.958,11.288c1.962-0.406,3.924-0.813,5.887-1.22c3.009-1.863,5.122-4.443,6.337-7.74
		c3.54-2.649,7.268,1.287,10.034,3.368c3.726-4.202,9.577,3.918,10.392,6.91c1.57,5.764,1.379,17.075-1.423,22.474
		c4.581,0.957,10.971,2.157,13.128,7.069c2.455,5.589-3.511,10.187-1.75,15.593c12.226,0.357,26.239-7.735,18.716-21.576
		c-4.857-3.552-7.535-8.245-8.033-14.081c0.438-2.094,0.876-4.188,1.314-6.282c2.824-7.335,7.254-6.759,14.919-5.876
		c2.86,0.33,9.231,2.994,11.828,2.626c6.649-0.941,7.226-9.732,12.722-12.006c7.521-3.112,7.738,6.218,7.627,10.096
		c-1.163,1.819-1.256,3.761-0.28,5.823c4.077,2.554,8.53,4.047,13.359,4.478c7.594,0.458,13.848-4.572,9.123-12.273
		c6.998-3.462,16.232-3.593,22.377,1.318c3.374,2.697,7.399,6.728,4.704,11.237c2.131-3.62,7.109-3.336,9.647-0.383
		c3.756,4.371,1.482,14.26-0.458,18.457c-2.191,4.741-4.673,4.763-8.344,7.596c-11.268,8.696,11.244,23.453,19.783,22.115
		c3.881,1.338,6.487-0.45,7.815-5.362c1.063-3.049,2.125-6.097,3.188-9.146c0.081-1.984,0.161-3.968,0.241-5.952
		c-1.861-0.912-2.796-2.347-2.805-4.306c5.748-3.04,11.809-5.632,15.698-10.879c2.73-3.684,2.549-7.041,7.184-8.638
		c7.972-2.745,19.998,2.585,23.61-8.757c2.42-7.599-0.34-16.618-5.843-22.116c-4.094-0.445-6.247-2.305-6.459-5.581
		c-1.042-3.046-0.489-6.032,1.658-8.955c1.012-4.282-0.066-8.921,0.85-12.942c1.385-6.08,5.384-4.906,11.272-7.802
		c7.366-3.622,14.979-7.747,16.511-16.397c1.179-6.659-0.694-13.416-7.51-16.435c-6.134-2.715-14.044-0.005-18.204-6.768
		c-4.479-7.282,1.646-15.296-1.578-23.643c-2.612-6.765-8.056-14.884-16.418-11.344c-6.238,2.641-5.277,9.732-12.183,12.401
		c-4.026,1.557-7.124-0.528-11.318-0.749c-5.093-0.269-6.312,2.398-10.566,3.771c-2.487-2.572-8.556-7.002-12.4-4.628
		c-3.256,2.012-0.966,7.282-4.298,9.553c-4.887-1.605-8.258-6.451-13.229-7.153c-2.422-1.989-4.543-1.632-6.363,1.071
		c-3.566,2.276-6.565,5.183-8.997,8.72c-1.843,1.365-5.083,2.117-6.578,3.911c-3.254,3.903-2.452,11.354-4.609,15.938
		c-9.381-2.215-11.077-18.856-20.523-20.639c-5.734-1.083-8,4.655-13.703,4.075c-3.721-2.452-6.863-1.738-9.427,2.142
		c-2.461,6.365-4.617,12.832-6.469,19.4c-3.784,8.314-10.669,13.114-12.414,22.521c-0.784,4.224-4.361,26.811-13.22,22.647
		c-4.935-2.319-3.619-9.626-3.756-13.835c-0.198-6.111,1.271-7.786-4.722-9.14c-3.865-0.351-7.707-0.875-11.525-1.569
		c-2.092,1.009-4.176,1.155-6.253,0.439c-0.49-7.334-0.816-14.209,0.977-21.502c0.162-6.997,3.087-11.896,8.776-14.695
		c4.734,3.046,9.652,3.064,14.755,0.055c12.878-7.459,0.917-16.413,9.247-23.988c7.34-6.675,11.036-0.461,16.757,2.498
		c5.581,2.287,10.941,1.729,16.079-1.673c2.294-2.754,5.111-4.685,8.45-5.792c5.642,1.009,11.333,1.444,17.071,1.307
		c5.39-0.421,10.089-2.38,14.099-5.88c7.538-2.804,15.109,5.329,22.596-2.196c10.422-10.474-2.22-25.672-7.884-34.318
		c-4.971-7.587-7.807-14.85-10.062-23.469c-3.553-13.581-19.576-12.805-29.373-5.543c-4.737,3.384-7.795,7.83-9.178,13.338
		c-0.363,3.961-2.723,5.886-7.08,5.773c-5.716-0.405-11.164-1.818-16.347-4.24c-3.654-0.729-6.287,0.412-7.899,3.424
		c-5.88,4.864-4.132,12.508-13.104,12.491c-9.444-0.019-15.874-1.684-17.757-11.691c-1.211-7.038-0.402-13.806,2.428-20.304
		c4.647-2.506,9.205-2.18,13.674,0.978c7.779,1.471,15.844-4.889,14.733-13.498c-6.978-3.61-15.239-2.822-20.762-8.794
		c-4.603-4.975-9.173-14.258-16.132-13.814c-10.767,0.688-16.707,14.952-27.026,16.236c-12.253,1.525-14.6-10.332-13.812-19.808
		c1.318-0.568,2.637-1.136,3.955-1.703c2.426,2.363,4.744,2.684,6.954,0.961c3.465-1.916,4.448-7.426,5.222-11.222
		c7.384,0.226,13.008-2.611,19.549-5.367c9.963-4.197,13.136-0.11,23.41-1.731c9.626-1.52,13.015-10.367,12.232-19.447
		c-0.891-10.318-6.614-8.672-11.071-16.797c-4.207-7.671-2.675-19.818-13.854-21.301c-7.741-1.027-16.956,0.575-24.771,0.733
		c-3.48,0.071-4.021-0.116-6.921,2.012c-3.342,3.238-6.23,6.869-8.663,10.895c-2.764,7.228-7.552,12.212-14.366,14.954
		c-12.16-8.172-14.609,1.595-22.867,10.033l-6.187,5.214c-4.942,1.384-9.48,3.596-13.615,6.637
		c-4.463,5.431-1.143,9.826-0.648,15.691c0.876,10.367-1.354,23.483-5.048,33.108c-4.915-3.8-8.957-6.922-14.344-10.388
		c-5.149-3.313-5.544-4.757-9.914-0.562c-4.744,4.553-6.847,14.463-8.362,20.885c-1.962,8.321,0.335,7.906,2.307,14.835
		c1.245,4.375-0.106,11.367-3.935,13.933c-4.38,2.935-5.124-0.369-9.388,0.042c-9.108,0.88-5.963,11.865-2.843,16.6
		c4.405,6.687,9.346,9.851,7.403,18.607c-10.688,0.261-16.87-13.055-19.152-22.509c-1.339-5.547-3.844-13.988-3.528-19.557
		c-0.32-3.316,0.828-6.209,3.444-8.68c3.585-2.506,7.243-4.902,10.972-7.186c4.943-7.327-3.175-15.349-9.179-18.144
		c2.061-5.563,3.685-11.257,4.872-17.082c-1.63-4.052-1.127-6.691,1.511-7.919c1.732-0.968,3.462-1.937,5.193-2.908
		c3.132-2.958,4.572-6.428,4.318-10.413c0.082-6.34-5.275-9.235-1.32-15.055c1.708-1.933,3.417-3.867,5.125-5.8
		c2.98-3.648,5.257-7.681,6.832-12.099c3.577-2.941,5.085,0.234,10.14-3.357c5.535-3.931,5.621-14.338,13.074-15.34
		c6.937-0.933,13.023,7.36,20.008,7.083c13.41-0.534,13.527-22.384,16.364-31.53c4.705,2.134,9.051,4.865,13.037,8.19
		c7.223,1.159,12.876-1.558,16.959-8.152c7.658-6.12,10.195-13.807,7.61-23.062c-3.561-5.404-7.511-10.5-11.852-15.289
		c3.94-9.662,27.35,2.921,34.375-4.814c4.048-4.457,4.618-10.978,1.433-15.827c-3.697-5.628-9.801-4.153-16.144-3.582
		c-4.655-13.644-18.054-22.307-28.444-31.563c-3.404-2.036-5.605-4.971-6.603-8.804c-3.038-3.385-3.156-6.905-0.353-10.558
		c0.517-4.63,2.988-7.798,7.412-9.503c4.072-4.262,9.153-6.1,15.243-5.515c5.954,2.674,10.365,9.774,14.22,14.651
		c4.141,5.239,8.231,10.47,11.773,16.147c1.978,3.493,3.956,6.985,5.934,10.477c1.107,6.046,4.158,8.734,9.157,8.065
		c3.563,0.726,6.987,0.187,10.271-1.621c5.382-2.007,10.963-3.061,16.743-3.165c3.365,4.428,4.917,9.487,4.658,15.179
		c2.016,4.117,4.278,8.093,6.787,11.924c-6.347,6.947-24.023,11.205-21.122,23.565c2.633,11.219,25.37,9.884,20.434,22.666
		c-3.878,10.042-17.546,5.806-21.024,14.965c-3.857,10.16,11.236,15.017,14.911,22.047c1.086,6.177,3.732,11.615,7.942,16.313
		c6.516,4.756,13.788,7.558,21.816,8.406c5.59,0.842,10.312,3.263,14.165,7.263c4.418,2.113,8.1,0.803,11.046-3.932
		c10.386-11.062,4.432-22.913-6.103-30.307c-4.847-2.041-8.318-5.503-10.413-10.387c-0.464-5.865-3.281-9.077-8.453-9.638
		c-3.511,3.614-7.452,6.669-11.821,9.168c-3.872-0.447-6.101-2.632-6.689-6.556c0.27-5.358,8.634-5.227,12.021-7.59
		c5.735-4.003,3.602-5.793,1.896-10.757c-1.467-4.27-2.728-6.327,4.451-6.742c6.128-0.355,15.192,3.145,21.045,5.404
		c6.521,2.516,6.314,5.341,7.595,11.229c1.133,5.205,1.247,12.021,8.077,13.268c10.113,1.846,13.449-11.229,13.341-18.19
		c8.497-2.059,7.439,3.536,9.906,9.871c3.962,10.174,14.367,7.498,23.567,10.261c1.35,4.724,2.076,9.531,2.177,14.424
		c0.004,4.337,0.689,8.569,2.055,12.697c-1.446,2.955-3.76,1.528-5.657,4.012c0.413,11.021,33.933,10.599,33.774-2.124
		c6.431,2.327,12.383,4.961,19.081,6.459c1.67-2.518,2.918-6.318,2.383-9.295c-1.508-8.389-8.9-12.826-8.303-21.825
		c4.546-0.704,12.421,0.671,15.283-2.652c2.292-2.661,1.684-3.934,1.672-7.469c3.001,2.726,6.551,4.196,10.649,4.407
		c3.271-2.426,4.807-5.676,4.606-9.749c3.786-0.673,5.815,2.5,8.79,4.253c4.766,2.81,9.743,3.378,14.083,6.933
		c5.503,4.509,7.078,10.193,3.94,16.513c-1.442,3.171-3.096,6.227-4.963,9.168c-3.366,3.453-3.807,7.419-1.324,11.897
		c10.438,3.571,26.598,3.682,30.943,16.128c5.752-0.088,17.658-1.267,22.311-3.92c7.205-4.981,9.973-11.859,8.303-20.634
		c-2.386-3.491-2.84-6.91-1.363-10.258c6.696-0.117,10.547-0.341,14.227-5.682c2.602-3.776,3.854-12.629,1.025-16.812
		c-2.733-4.043-9.248-5.719-12.728-9.392c-1.824-1.241-3.129-2.869-3.915-4.883c-1.026-1.39-1.549-2.95-1.57-4.68
		c-2.13-2.188-6.725-1.506-9.361-1.959c-6.328-1.087-12.649-3.606-14.903-10.031c-1.931-5.504,1.165-11.55,7.837-11.232
		c6.19,0.295,7.637,7.938,13.58,8.055c3.36-4.211,3.166-8.284-0.583-12.22c-3.902,1.094-7.533,0.664-10.893-1.291
		c0.063-7.044,2.333-13.295,6.81-18.751c5.912-0.739,10.497,1.521,13.756,6.779c3.501,2.518,7.116,4.856,10.846,7.014
		c12.66,7.622,6.524,21.702,4.742,33.609c9.944,6.372,20.555,0.712,23.193-10.11c8.878,2.198,14.345,5.722,18.456,14.897
		c1.605,4.801,4.288,8.945,8.049,12.429c4.683,0.08,9.36,0.288,14.032,0.627c0.736,3.132,1.336,8.436,3.485,10.902
		c5.353,3.4,10.929,4.137,16.728,2.21c4.954,0.737,8.533-1.065,10.738-5.408c5.644-6.324,5.021-13.26,2.964-21.306
		c-1.658-6.485-2.315-14.655-5.055-20.74c-1.182-2.624-6.807-7.317-6.755-10.137c0.078-4.238,5.919-5.096,9.069-5.781
		c8.261-1.797,15.864,0.007,24.089-0.65c2.801-0.225,9.84-3.021,12.046-1.386c-0.212,8.115-0.501,12.826,5.136,19.136
		c6.604,7.392,15.163,12.571,16.988,22.948c-2.536,1.787-5.12,3.503-7.751,5.147c0.097,4.024,2.89,2.089,2.877,7.548
		c-0.848,2.526-1.696,5.052-2.543,7.577c-0.723,5.266,0.31,10.123,3.101,14.575c-12.191,7.66-36.849,4.895-33.617,27.065
		c3.504,4.588,3.709,9.188,0.614,13.8c-4.677,4.249-6.452,9.239-5.323,14.973c-1.251,7.072,2.345,11.696,10.789,13.874
		c9.586,3.159,18.95,2.776,28.092-1.15c5.211-1.936,7.356-5.388,6.435-10.355c-0.342-0.952-0.768-1.611-1.256-2.052
		c4.364,1.241,9.599,3.991,10.164,8.658c0.868,7.182-5.715,5.46-5.991,11.09c1.218,1.821,2.436,3.641,3.653,5.462
		c5.904,5.046,12.74,7.726,20.509,8.04c7.351-0.403,10.865-5.593,16.776-8.996c7.643,9.971,8.92,24.225,7.222,36.575
		c7.034,3.99,13.302-0.25,19.451-4.467c-0.549-4.1-2.216-7.73-5.001-10.888c-1.256-6.886,1.351-12.038,7.82-15.453
		c6.683-5.17,24.428-9.041,24.888-19.735C1533.153,1136.703,1530.047,1134.866,1527.708,1131.839z M791.743,1270.003
		c-0.461,2.894-0.873,7.664-2.828,9.87c-2.114,2.385-2.06,1.209-4.984,1.954c-3.018,0.768-4.767,2.995-7.373,3.954
		c-1.1,0.404-8.104,0.986-7.476,3.426c-1.663-0.665-4.027-0.628-5.301-1.661c-5.735-4.649,4.865-10.889,6.792-16.092
		c1.862-5.03-0.703-3.227-2.603-6.42c-1.4-2.352-2.273-7.368-4.593-8.913c-3.817-2.541-9.175,0.268-13.414-2.125
		c-6.731-3.8-4.214-14.973-11.395-17.36c-2.906-0.967-7.287,1.533-9.87-0.274c-1.789-1.252-3.151-8.176-2.383-10.09
		c1.689-4.211,4.8-1.495,8.197,0.022c4.308,1.924,6.685,2.877,11.214,1.124c8.017-3.102,6.689-12.74,1.192-18.561
		c-1.715-1.816-4.953-2.54-5.937-5.129c-1.408-3.705,1.41-8.383,1.739-12.26c0.52-6.13,0.519-7.895-5.916-8.554
		c-5.373-0.551-9.944,0.615-14.385,3.611c-0.446-2.602-1.1-7.051-2.533-9.2c-3.084-4.627-6.914-4.233-11.965-4.583
		c-1.303-4.07,0.483-18.551,6.015-18.954c2.14-0.156,4.306,2.589,6.136,3.408c3.007,1.347,4.856,0.411,7.937,1.088
		c5.675,1.247,2.138,4.761,5.612,7.322c4.664,3.438,6.276-4.202,9.163-6.122c4.198-2.792,6.481,1.537,9.72,4.627
		c4.723,4.508,10.765,4.933,14.737,10.544c6.753,9.542-5.66,11.828-5.416,20.875c0.208,7.696,12.112,11.796,15.278,18.107
		c0.678,1.353,0.424,3.148,1.047,4.412c1.081,2.19,3.406,4.17,4.829,6.18c2.937,4.15,3.233,6.471,3.022,11.336
		c-0.069,1.579,0.526,3.202-0.365,4.666c-0.851,1.398-2.964,1.476-3.754,3.39c-2.377,5.757,5.077,8.536,7.917,11.525
		C793.585,1259.131,792.61,1264.551,791.743,1270.003z"/>
	<path style="fill:#878C91;" d="M1388.826,539.656c7.9,3.548,13.612-0.25,18.052-7.242c1.887-2.971,2.151-6.022,2.973-9.331
		c0.866-3.486,3.167-6.823,3.712-10.69c0.406-2.883,0.527-6.717-1.493-8.889c-2.115-2.273-5.386-2.045-7.341-5.004
		c-2.195-3.323-1.445-6.768-1.493-10.837c-0.046-3.962,2.01-6.501,1.633-9.782c-0.5-4.356-7.228-9.249-10.379-12.348
		c-5.145-5.06-5.866-12.909-11.279-17.478c-2.872-2.424-4.675-3.51-8.329-3.196c-2.578,0.222-5.797,2.979-8.123,4.269
		c-3.03,1.679-4.274,2.174-7.3,0.047c-1.573-1.105-1.67-3.397-3.445-4.375c-2.566-1.415-4.578,0.448-6.883-1.804
		c-3.028-2.959-1.193-9.029-1.405-12.949c-0.091-1.671-0.042-2.34-0.506-4.115c-0.694-2.659-0.796-5.799-1.493-8.33
		c-0.984-3.57-5.998-5.015-8.794-5.615c-2.8-0.601-9.255-1.536-11.986-0.605c-3.319,1.132-5.218,6.804-6.579,9.929
		c-1.489,3.418-0.923,6.651-2.017,10.328c-0.858,2.882-3.832,7.038-5.653,8.75c-1.086,1.021-2.701,0.815-3.752,2.42
		c-0.875,1.335-0.664,3.372,2.128,2.007c-0.834,1.35-1.554,2.69-2.088,3.748c-1.742,3.449-2.964,5.704-1.007,8.794
		c1.244,1.965,3.921,3.121,5.221,5.052c2.676,3.972,0.836,8.267,1.453,12.949c0.416,3.15,1.344,6.102,2.281,9.211
		c1.117,3.707,3.98,4.659,5.586,7.611c1,1.837,0.27,3.82,0.355,5.769c0.117,2.658,1.061,3.729,1.662,6.158
		c1.038,4.195,0.267,6.431,4.459,8.801c3.837,2.169,6.767,2.119,9.929,5.616c3.111,3.44,2.278,5.872,2.474,10.28
		c0.292,6.556,6.425,14.307,12.858,15.988c8.036,2.1,9.842-4.542,15.438-8.315C1374.427,531.938,1382.357,536.75,1388.826,539.656z"
		/>
	<path style="fill:#878C91;" d="M1250.518,460.909c-0.952-3.681-3.918-8.323-4.008-11.993c-6.214-1.347-8.793-2.135-12.79-7.61
		c-2.398-3.284-6.204-7.153-10.263-7.042c-3.531,0.097-7.829,5.397-11.459,6.184c-2.924,0.634-4.322-0.685-6.843,1.339
		c-2.229,1.789-2.5,4.979-4.567,6.87c-7.788,7.126-14.633-13.089-21.059-17.11c-4.211-2.634-9.593-1-14.502-1.95
		c-2.489-0.482-3.247-2.884-5.705,0.36c-1.805,2.381-0.421,5.355-1.342,8.108c-1.971-0.294-2.653-3.384-4.214-3.592
		c-1.357-0.181-3.869,2.584-4.688,3.75c-1.212,1.728-1.651,3.495-3.009,5.221c-1.315,1.671-3.49,2.824-4.696,4.563
		c-2.695,3.884-2.298,10.333,0.536,13.951c3.508,4.479,5.504,6.55,3.678,12.896c-0.667,2.314-2.722,3.074-1.182,6.227
		c0.524,1.074,3.105,3.261,4.101,4.009c3.555,2.672,8.706,5.908,12.894,6.759c5.215,1.06,12.175-0.003,17.558-0.07
		c4.915-0.061,9.308,2.284,13.206,5.4c0.194,0.464,0.387,0.927,0.64,1.329c0.865,1.378,2.732,3.155,3.883,4.347
		c3.169,3.284,6.34,4.818,9.019,0.031c2.925,2.055,3.321,8.867,5.616,12.081c3.35,4.694,9.521,4.971,14.615,5.953
		c-0.528,6.378,5.125,3.259,7.08,0.213c1.223-1.905,0.878-2.387,1.501-4.672c0.231-0.85,1.455-3.917,1.6-4.574
		c0.937-4.242-0.356-7.39,2.499-10.874c2.404-2.935,5.646-2.897,8.294-5.08c7.901-6.514,0.311-13.931,1.904-22.68
		C1249.657,468.613,1251.794,465.836,1250.518,460.909z M1189.252,491.77c0.561,0.45,0.97,1.025,1.319,1.649L1189.252,491.77z"/>
	<path style="fill:#878C91;" d="M583.899,564.254c3.039,0.749,6.421,3.42,9.145,5.191c4.049,2.633,8.854,3.334,9.976,8.698
		c0.948,4.533-1.301,9.754,0.271,14.231c2.332-1.236,4.221-2.245,6.268-3.848c2.45-1.92,3.477-3.79,6.631-4.264
		c6.983-1.049,13.137,8.076,17.531,12.431c4.106,4.07,8.047,13.076,14.362,11.982c6.224-1.078,8.339-7.948,9.837-12.433
		c1.265-3.79,5.419-11.929,0.652-14.091c-4.793-2.174-8.475,2.197-12.508-2.923c-3.037-3.856-2.596-10.132-1.584-14.99
		c0.306-1.465,1.146-3.723,1.523-5.602c0.731-3.645,1.492-3.971,4.195-6.421c1.473-1.335,3.842-5.214,6.169-5.148
		c1.84,0.052,3.69,3.34,4.891,4.428c1.652,1.497,3.712,2.495,5.397,3.955c2.929,2.541,3.266,5.864,5.601,8.468
		c3.276,3.655,6.955-0.241,10.859-2.197c3.872-1.94,9.805-3.925,11.993-8.183c3.056-5.947,2.202-12.495,0.41-18.557
		c-1.792-6.063-2.371-11.011-2.133-17.536c0.255-6.972,5.16-8.247,10.81-5.609c4.179,1.952,8.052,2.834,11.916-0.646
		c2.705-2.437,2.311-4.637,6.048-6.563c2.387-1.23,5.057-2.179,7.326-3.599c4.342-2.718,7.717-4.054,13.241-3.189
		c6.424,1.006,9.67,5.46,16.507,3.749c4.592-1.148,7.271-3.44,10.288-6.938c3.458,3.103,4.382,10.969,10.188,11.151
		c3.342,0.105,6.789-3.658,10.346-3.438c4.17,0.258,9.005,4.972,12.898,6.473c9.492,3.659,15.851-1.095,24.184-5.236
		c3.454-1.716,7.32-3.118,10.328-5.564c4.71-3.83,2.762-5.646,3.968-10.493c0.559-2.247,3.106-4.767,4.242-6.899
		c1.086-2.038,1.267-5.22,2.447-6.987c2.888-4.324,9.29-3.334,12.546-8.127c3.417-5.031,3.473-8.758,3.503-14.915
		c0.032-6.509-2.333-11.331-3.664-16.91c-1.958-8.209-2.843-6.515-10.73-7.681c-5.532-0.817-8.829-5.679-6.799-10.445
		c1.571-3.69,3.749-3.518,0.088-7.768c-1.646-1.91-3.877-3.676-5.699-5.314c-2.285-2.054-1.926-2.578-5.033-3.372
		c-2.969-0.759-4.561-0.384-7.247-2.012c-6.803-4.123-2.409-7.832-2.017-14.395c0.361-6.056-0.215-8.672-6.114-10.346
		c-1.819-0.516-8.659-2.884-10.54-2.193c-3.124,1.147-1.982,4.386-1.911,7.399c0.144,6.164-0.447,13.024-8.237,10.848
		c-3.856-1.077-6.058-1.681-10.273-1.6c-2.701,0.052-4.763,0.53-6.784-1.446c-5.929-5.798,3.501-6.656,2.915-10.947
		c-0.42-3.074-2.442-0.992-3.863-2.354c-0.84-0.805-1.968-2.683-2.603-3.723c-1.626-2.661-3.455-5.754-1.854-9.14
		c2.166-4.582,8.917-1.733,9.813-6.804c-2.317-1.652-4.163-5.445-5.861-7.758c-1.932-2.632-2.767-6.549-4.58-8.841
		c-2.435-3.081-4.412-1.29-7.362-2.878c-1.01-0.544-1.457-2.071-2.403-2.74c-1.1-0.778-2.666-0.679-3.714-1.429
		c-1.811-1.297-3.607-5.275-5.834-5.637c-2.94-0.477-4.296,2.689-8.051,2.073c-7.898-1.296-2.037-11.345-8.648-12.08
		c-2.627,4.703-13.898,0.283-17.04-1.287c-3.071-1.535-3.553-5.177-6.925-5.183c-2.258-0.004-6.166,5.069-8.307,6.18
		c-4.272,2.217-3.51,2.69-5.824-1.622c-1.675-3.12-1.592-4.544-5.162-4.196c-1.679,0.164-4.873,2.934-6.154,4.214
		c-1.411,1.411-1.956,3.152-2.679,4.783c-1.204,0.671-2.678,1.847-4.094,3.699c-3.045,3.982-4.083,7.589-4.034,12.601
		c0.025,2.607,0.394,5.65,0.086,8.243c-0.585,4.926-1.879,4.466-6.246,5.379c-6.659,1.393-15.429,6.36-14.558,13.996
		c0.491,4.303,3.082,8.337,4.873,12.195c0.457,0.985,1.24,3.606,1.845,4.47c3.779,5.4,9.08,2.237,11.931,8.383
		c0.962,2.075,6.665,11.401,6.063,14.183c-0.567,2.619-7.022,7.394-8.987,9.174c-5.242,4.751-6.32,5.102-4.291,12.464
		c1.212,4.397,2.737,9.212,4.6,13.353c2.106,4.681,4.67,8.966,0.605,12.385c-3.627,3.049-10.14,2.11-12.299,7.087
		c-1.844,4.249,1.748,10.547,2.927,14.574c1.411,4.823,2.636,8.67,6.222,12.344c2.051,2.101,5.75,4.339,6.907,7.096
		c2.972,7.082-3.281,4.662-6.466,7.626c-1.923,1.789-0.733,3.991-3.405,4.928c-2.211,0.775-3.427-1.214-5.177-1.754
		c-0.778-0.24-5.865-2.491-6.535-2.481c-3.179,0.049-2.134,1.087-3.287,3.535c-2.097,4.448-3.159,9.785-6.883,13.965
		c-3.345,3.754-10.071,4.918-12.336-1.029c-1.66-4.36,4.226-10.844-0.254-15.1c-2.098-1.994-9.597-3.361-12.645-3.876
		c-0.686-5.875-1.665-11.469-8.5-13.773c-5.359-1.807-13.131-1.218-16.581,3.353c-6.208,8.225-5.561,19.355-16.372,24.428
		c-3.08,1.446-9.527,7.094-12.242,3.764c-1.914-2.347,1.146-6.589-4.071-6.849c-4.024-0.201-21.164,13.686-16.951,17.697
		c-2.605,1.628-3.588,13.087-3.848,16.082c-0.352,4.056-0.705,11.006,2.044,14.223c3.274,3.83,9.157,3.934,13.52,5.202
		c5.172,1.504,9.144,5.777,14.366,7.335C575.91,566.388,578.876,563.016,583.899,564.254z"/>
	<path style="fill:#878C91;" d="M663.642,773.644c3.16-7.533-1.839-9.925-3.266-16.354c-0.707-3.183,1.015-5.729-1.081-8.177
		c-1.588-1.853-5.289-1.267-7.093-2.165c-7.604-3.783-0.696-12.46-7.305-17.454c-6.907-5.219-10.492,7.869-14.817-1.128
		c-2.068-4.302-1.741-4.103-6.685-6.667c-2.388-1.239-5.686-2.677-6.264-5.612c-0.599-3.039,2.309-5.662,3.705-8.179
		c2.547-4.594,4.279-7.138,8.893-9.914c4.188-2.519,8.967-5.256,12.286-9.116c3.129-3.638,3.929-15.808-0.982-18.025
		c-2.645-1.194-6.529,0.385-9.393-0.041c-5.568-0.831-4-2.988-4.067-8.271c-0.058-4.536,0.307-5.079,3.062-8.246
		c0.562-0.646,2.93-3.35,3.554-3.747c1.41-0.9,2.539,0.281,3.723-0.285c2.608-1.249,4.578-3.396,7.768-1.699
		c2.734,1.454,3.432,5.665,6.576,6.89c3.643,1.42,3.908,0.365,5.601-3.053c2.024-4.086,4.703-7.908,4.767-12.491
		c0.172-12.381-14.169-11.732-23.325-10.394c-4.95,0.723-7.95,3.87-12.297,0.71c-3.108-2.258-3.252-6.102-7.673-6.923
		c-4.902-0.911-5.963,0.984-9.764-2.428c-2.123-1.906-3.783-4.31-6.641-5.245c-4.557-1.493-7.764-0.907-12.392-3.032
		c-3.311-1.52-7.096-1.888-10.288-2.542c-1.675-0.344-1.472-0.776-2.753-0.733c-1.982,0.479-4.266,1.352-5.429,1.724
		c-3.232,1.032-6.082,1.502-9.306,2.292c-5.16,1.264-11.836,5.132-15.428,9.063c-2.034,2.228-3.543,4.685-5.144,7.226
		c-1.018,1.616-2.529,7.184-3.448,7.908c-5.946,4.68-10.536-7.718-16.117-0.724c-2.498,3.13-5.113,10.13-4.172,14.496
		c0.311,1.443,1.502,5.404,2.596,6.656c2.122,2.427,5.892,1.936,7.469,4.418c1.613,2.542-0.27,4.945,2.281,7.435
		c1.172,1.146,4.531,2.29,6.139,3.014c4.747,2.135,5.786,1.772,10.387,0.457c3.544-1.013,4.829,0.176,7.72,1.296
		c1.539-1.843,4.858-5.176,7.202-5.451c3.089-0.363,6.52,1.76,9.775,3.134c6.291,2.655,15.876,6.876,12.635,14.187
		c-1.718,3.874-3.733,4.77-8.055,4.492c-1.802-0.116-1.515-1.429-4.074-1.237c0.931-0.07-5.447,2.573-4.565,2.046
		c-2.062,1.233-3.695,3.109-5.763,4.328c-0.764,0.45-3.954,1.435-4.214,1.797c-3.128,4.361,2.46,6.882,3.592,9.512
		c-2.982,0.877-6.038,0.249-9.121,0.397c-3.41,0.163-4.11,1.288-7.068,2.143c-3.219,0.931-6.115-0.794-5.975,4.009
		c0.094,3.221,2.89,5.319,1.588,9.123c-1.578,4.611-7.871,9.94,1.111,11.569c2.747,0.498,6.519-1.722,7.523,1.827
		c0.609,2.15-2.862,6.109-4.284,7.375c-3.662,3.26-9.643,6.468-14.479,7.287c-6.097,1.034-11.039-1.436-16.453,1.959
		c-4.334,2.718-7.01,5.928-8.074,11.313c-0.968,4.902,0.983,5.709,4.018,8.797c2.548,2.592,4.542,5.37,7.959,7.187
		c-1.206,5.266-10.647,4.642-13.262,9.677c-4.001,7.704,9.814,8.283,14.496,8.283c8.468,0,12.381-2.524,19.44-6.73
		c5.808-3.46,14.436,1.27,18.22-6.018c2.542-4.895,2.005-17.881,10.698-15.68c4.796,1.214,7.338,5.373,10.357,8.726
		c3.208,3.564,3.965,2.1,8.153,3.593c4.305,1.535,5.482,5.247,10.24,5.869c4.062,0.53,6.676-0.748,10.328-1.655
		c3.659-0.907,7.054-0.039,8.336-4.466c0.713-2.461,0.599-8.76-1.34-10.581c1.949-0.166,5.219,1.836,7.365,2.252
		c3.395,0.656,6.847,1.915,10.335,2.104c7.743,0.421,11.852,0.07,18.517,4.061C656.943,783.849,660.681,780.701,663.642,773.644z"/>
	<path style="fill:#878C91;" d="M466.55,995.905c0.527-0.991,2.257-3.184,2.284-4.276c0.047-1.886-2.248-2.329-2.014-4.002
		c0.477-3.416,6.095-4.064,8.589-5.67c7.634-4.915,0.704-9.321,2.065-16.152c-2.328,2.481-3.27-2.029-5.227-2.968
		c-3.502-1.68-3.209,0.964-6.396,2.019c-3.353,1.11-7.542-1.737-8.675-4.759c-0.283,0.253-0.567,0.454-0.842,0.513
		c-2.685,0.571-2.547-2.237-4.122-3.459c-2.78-2.159-7.883-1.133-10.427-3.895c-4.931-5.354,0.193-18.262-1.863-25.089
		c-4.186,0.41-4.557,6.334-9.991,1.421c-2.223-2.01-4.085-5.104-6.111-7.347c-1.454-1.612-2.237-2.618-3.547-4.624
		c-3.268-5.008-6.392-2.89-10.797-6.022c-4.031-2.867-7.154-6.833-10.859-10.068c-4.121,0.559-5.207,8.763-8.083,11.496
		c-7.531,7.155-7.796-6.893-15.067-2.473c-1.859,1.13-4.423,4.658-5.655,6.548c-1.277,1.959-1.755,4.948-3.968,6.319
		c-4.41,2.732-12.291-3.695-15.64-6.257c-2.7-2.065-8.78-7.438-8.78-10.807c0-6.213,7.601-5.67,10.017-9.676
		c1.596-2.646-1.226-7.258,0.728-9.565c0.632-0.746,7.631-1.924,8.947-2.186c8.435-1.68,9.973,0.79,11.719,7.849
		c2.347-0.409,10.299-8.052,11.525-10.486c3.36-6.676-6.742-6.891-9.883-10.892c-2.648-3.374-2.203-3.578,0.53-6.705
		c1.505-1.723,3.367-4.101,5.557-4.738c1.862-0.541,4.239,0.18,6.264-0.344c1.91-0.494,2.76-2.036,4.995-1.528
		c2.286,0.52,3.191,4.579,5.299,5.211c3.606,1.082,2.907-2.495,4.573-4.832c1.357-1.904,3.639-3.323,5.198-5.089
		c1.9-2.154,4.686-5.299,1.459-7.635c-1.288-0.932-3.605,0.151-5.113-0.024c-3.151-0.364-2.106-0.579-4.565-1.607
		c-2.726-1.139-4.761-1.373-5.759-4.514c-1.23-3.873,1.453-5.203,2.249-8.23c1.768-6.73-6.212-12.434-12.24-12.857
		c-0.01-3.703,5.241-4.732,7.066-7.747c2.766-4.565-1.255-5.698-1.497-9.965c-1.111-0.298-2.233-0.548-3.365-0.75
		c-1.505-5.316-1.469-15.118,3.452-18.722c-0.796-4.73-8.614-4.977-12.081-6.026c-7.178-2.17-2.593-7.289-1.969-11.88
		c0.622-4.58,0.138-4.756-3.05-6.48c-3.407-1.841-3.378-1.896-5.47-4.663c-1.286-1.7-3.146-3.229-3.917-5.273
		c-1.066-2.824-0.537-5.26-2.53-8.124c-8.211,3.848-8.945-0.137-11.797-7.496c-1.66-4.283-1.595-3.059-5.424-1.184
		c-2.578,1.262-4.519,2.58-6.945,4.36c5.538-3.96,0.597-1.871-4.009,0c-2.642,1.073-6.96,1.374-8.941,3.503
		c-2.349,2.524-0.749,4.878-1.372,7.894c-0.617,2.988-1.5,4.93-2.085,8.129c-0.638,3.492-2.566,5.962-3.718,9.279
		c-1.932,5.561-1.964,5.275-6.63,8.124c-3.546,2.164-5.778,5.733-9.073,8.436c-2.684,2.203-4.748,2.86-5.484,6.474
		c-0.446,2.191,0.775,4.552,0.009,6.7c-0.455,1.278-1.813,1.84-2.47,3.079c-1.527,2.879-2.18,6.161-1.331,9.385
		c1.11,4.21,4.065,4.937,6.083,8.289c2.149,3.569,2.906,9.562,1.559,13.434c-2.023,5.823-4.15,1.976-7.959,4.28
		c-3.132,1.894-2.351,6.394-0.785,8.934c2.753,4.466,7.677,7.738,10.909,11.819c4.328,5.466,2.643,14.062-0.14,20.143
		c-1.569,0.474-2.915-0.005-3.818-1.341c1.202,5.294-4.63,16.926-10.273,10.287c0.422,5.414,0.244,6.995-3.928,10.547
		c-3.597,3.064-10.226,5.194-12.067,9.67c-2.141,5.206,1.258,9.37,3.273,13.79c3.119,6.841,1.211,11.244,0.44,17.829
		c-1.026,8.766,0.995,11.304-5.116,18.455c-3.464,4.053-5.679,8.125-5.281,13.761c0.305,4.331,2.126,6.966,4.316,10.435
		c0.748,1.183,3.399,6.828,4.511,7.852c3.882,3.577,7.318-0.041,9.929-3.661c-0.113,7.761,3.949,13.821,10.298,17.969
		c4.593,3.001,7.959,3.175,9.774-2.567c1.519-4.804,1.064-12.719,6.982-14.22c4.66-1.181,9.209,2.518,14.051,2.278
		c9.735-0.481,10.704-14.38,15.411-21.616c4.483-6.892,4.932-3.495,10.311,1.617c4.01,3.809,11.779,5.918,13.868,11.573
		c3.267,0.656,4.153-3.082,5.678-4.963c1.912-2.359,4.456-4.495,6.33-6.753c1.901-2.291,2.506-5.722,5.913-6.737
		c3.484-1.037,8.745,0.178,12.437,0.107c5.921-0.114,7.792,0.632,4.162,6.22c-2.197,3.383-6.569,5.698-2.188,9.285
		c4.213,3.449,8.502,1.563,8.408,9.178c-0.058,4.655-1.253,8.443-6.253,8.311c-5.507-0.147-2.679-3.388-6.597-5.836
		c-5.112-3.195-10.226,1.877-13.374,5.103c-4.974,5.098-13.001,10.667-16.912,16.251c-1.047,1.496-1.874,4.776-2.78,6.575
		c-0.865,1.718-2.201,2.016-1.695,4.632c0.446,2.311,2.688,2.087,3.917,3.95c0.775,1.173,1.724,5.035,1.999,6.272
		c0.924,4.149,0.45,8.064,6.179,5.762c3.511-1.41,7.081-6.553,11.92-3.485c5.154,3.267,0.012,12.324,5.926,14.181
		c3.737,1.173,9.627-4.171,13.116-5.541c1.573,6.065,1.801,9.399,7.499,12.821c2.837,1.703,7.241,4.534,10.283,5.171
		c2.87,0.602,7.309,0.137,9.16-1.281c0.373-0.286,1.228-2.781,1.642-3.502c0.42-0.733,1.859-1.99,2.396-2.747
		c1.852-2.613,2.954-5.111,1.126-7.821c-2.199-3.262-5.006-1.846-4.167-6.292c1.561-8.267,16.824-4.723,22.684-7.434
		c3.784-1.751,9.951-10.19,11.089-14.179c1.004-3.519-3.305-7.039-1.439-9.924c0.701-1.084,2.954-1.181,3.917-1.904
		C465.215,998.887,465.218,998.407,466.55,995.905z"/>
	<path style="fill:#878C91;" d="M434.161,1353.857c1.285-1.958,2.613-3.212,4.139-5.131c1.587-1.995,1.468-2.923,2.499-5.157
		c2.108-4.571,2.219-2.372,5.759-4.064c2.003-0.957,2.916-2.125,4.58-3.657c4.993-4.597,5.022-0.772,9.672,2.097
		c1.984,1.224,5.767,2.753,7.97,1.135c0.786-0.578,1.425-3.87,2.335-5.034c2.536-3.246,3.74-2.809,4.236-6.897
		c0.263-2.165,0.577-6.262,0.066-8.384c-1.194-4.955-4.002-7.616-0.127-13.111c1.231-1.746,4.171-3.009,4.341-5.306
		c0.122-1.646-2.062-3.106-2.164-4.884c-0.076-1.316,2.001-4.183,1.999-6.425c-0.001-2.641-1.039-3.586-1.647-5.594
		c-1.331-4.397-1.379-10.146-4.525-13.535c-1.864-2.008-3.345-2.357-5.715-2.064c0.139-0.017-1.81,1.607-2.296,1.754
		c-1.296,0.392-5.735-0.103-6.432-0.106c6.631,0-3.336-1.689-8.307,0.952c-1.949,1.036-3.4,2.609-5.583,3.675
		c-1.697,0.83-3.444,2.259-5.14,3.09c-4.85,2.376-8.974,4.503-7.252,10.807c1.508,5.521,4.1,11.994-2.987,13.93
		c-4.958,1.355-11.526-1.33-15.636,2.988c-2.516,2.643-3.146,9.423-2.49,12.985c0.813,4.409,4.899,8.53,6.751,12.791
		c0.992,2.283,1.541,2.545,1.592,5.629c0.054,3.242-1.619,5.357-1.743,8.25c-0.131,3.068,3.115,12.478,5.721,14.492
		C428.82,1362.982,431.853,1357.375,434.161,1353.857z"/>
	<path style="fill:#878C91;" d="M644.17,1469.027c-1.746-1.309-5.29-1.461-7.368-2.25c-8.457-3.208-7.658-10.953-11.249-18.178
		c-2.432-4.895-4.148-7.81-9.11-10.41c-4.156-2.178-8.48-3.438-13.112-5.706c-3.759-1.841-8.65-2.831-10.738-6.33
		c-1.938-3.247-2.319-8.797-3.617-12.426c-1.441-4.031-0.93-5.065-4.62-3.422c-4.482,1.997-6.324,8.472-10.247,11.539
		c-4.599,3.595-9.441,4.304-14.435,2.98c-2.938-0.779-6.546-1.739-9.266-3.063c-2.445-1.19-2.312-0.639-4.367-3.029
		c-1.354-1.576-2.665-5.328-4.884-5.921c-4.455-1.189-4.687,4.826-7.539,6.994c-6.919,5.257-10.983-4.092-17.363-2.421
		c-3.252,0.852-4.346,6.884-7.462,9.029c-3.045,2.097-10.154,2.585-12.876-0.417c-2.971-3.276-1.208-9.174-0.058-12.973
		c1.296-4.281,3.993-7.646,5.616-11.71c1.097-2.747,1.854-5.741,0.951-8.659c-1.707-5.517-8.139-8.297-12.875-10.619
		c-7.194-3.529-14.594-6.664-20.975-11.611c-3.216-2.493-6.325-7.887-9.868-9.46c-2.466-1.095-3.58,0.014-5.816,0.406
		c-2.919,0.51-5.389,0.681-8.441,0.709c-4.832,0.045-19.476,11.648-20.158,16.973c-0.455,3.563,3.855,4.589,3.387,7.208
		c-0.549,3.067-6.263,3.536-3.38,8.329c4.193,6.969,14.066,2.838,20.198,4.935c4.34,1.484,3.817,4.001,8.159,2.77
		c3.143-0.891,6.623-4.538,8.77-6.991c2.517,1.306,6.221,2.977,8.938,3.615c4.572,1.073,4.657,1.291,8.124,4.304
		c-4.224-0.037-8.77,0.097-10.995,4.532c-1.861,3.707-0.477,9.112,2.112,11.927c2.351,2.557,5.865,4.298,7.536,7.36
		c1.202,2.203,1.01,4.608,2.81,6.632c2.027,2.279,3.28,1.426,5.707,2.423c8.195,3.366,12.64,13.46,22.573,8.845
		c4.756-2.209,8.068-2.853,13.394-2.642c6.065,0.241,5.114,3.509,9.649,5.783c1.967,0.986,3.959-0.279,5.869,0.304
		c2.006,0.613,2.321,2.412,3.931,3.273c3.224,1.725,12.845,1.118,12.668,7.179c-0.06,2.061-4.879,8.013-6.422,9.237
		c-4.542,3.6-4.574-1.147-9.198-0.983c-4.721,0.167-5.904,6.235-10.344,6.237c-4.6,0.002-4.925-5.014-10.263-4.102
		c-4.733,0.807-7.581,4.603-12.348,3.796c-4.896-0.829-9.255-4.866-14.5-4.053c-3.808,0.591-7.118,3.688-11.232,4.326
		c-2.994,0.464-3.945-0.744-6.02,1.075c-1.105,0.968-2.002,4.477-2.294,5.936c-1.897,9.49,1.354,18.677,11.393,19.623
		c7.68,0.723,15.38,6.293,13.194,15.259c-0.362,1.486-1.535,2.515-1.935,4.21c-0.655,2.772,0.065,4.609-1.389,7.325
		c-2.542,4.75-8.272,5.727-8.955,11.265c-0.696,5.647,3.51,6.123,8.344,7.263c4.591,1.083,10.123,1.766,14.502,4.064
		c3.892,2.042,3.686,5.038,6.538,8.215c2.713,3.022,6.223,5.795,9.774,7.721c4.314,2.338,8.921,2.945,13.301,4.166
		c6.06,1.688,7.649-0.299,9.891-5.203c3.259-7.126,9.603-13.209,11.375-21.08c0.628-2.79-0.514-5.295,2.369-6.367
		c2.752-1.023,5.829,1.943,8.369,2.365c1.002,0.167,2.184-0.404,3.17-0.17c1.3,0.308,2.498,1.388,3.467,1.649
		c2.593,0.698,4.28,0.7,6.82-0.494c10.92-5.134,3.749-22.524-6.253-23.784c-2.868-0.362-4.559-0.027-7.304-1.44
		c-0.745-0.384-1.66-1.9-2.402-2.219c-1.241-0.533-2.62,0.074-3.723-0.345c-5.03-1.906-8.44-2.196-14.336-2.123
		c-4.202,0.052-8.306-0.975-10.139-5.292c-0.502-1.183-0.78-6.592-0.077-7.919c1.179-2.225,4.452-2.652,6.387-4.432
		c-1.732,1.669-4.571,1.118-6.49,2.37c-2.966,1.937-4.027,3.563-7.177,4.989c-2.064,0.933-4.82,2.172-7.201,2.156
		c-3.347-0.022-4.718-2.373-7.971-2.611c0.702-6.025,9.924-6.985,14.15-7.658c2.731-0.436,6.64-1.997,8.787-3.61
		c3.432-2.579,3.119-5.843,8.519-4.571c1.829,0.431,5.052,2.509,6.425,3.875c1.846,1.839,1.68,6.137,3.415,7.901
		c3.55,3.608,15.284,3.616,19.865,2.16c0.168-2.338-0.217-5,2.017-6.425c-0.501-0.57-0.956-2.548-1.516-3.141
		c4.082-1.832,9.641,1.692,14.205,1.632c4.339-0.056,8.486,0.018,12.344,1.036c3.614,0.953,8.755,2.569,11.928-0.775
		c3.286-3.464,2.759-11.015,2.508-16.044c1.441,7.581,16.673,10.857,22.592,9.201c5.196-1.454,6.922-4.785,6.212-9.911
		C645.696,1470.122,646.356,1470.667,644.17,1469.027z"/>
</g>
</svg>
